<?xml version="1.0" standalone="no"?>
<!DOCTYPE svg PUBLIC "-//W3C//DTD SVG 20010904//EN"
 "http://www.w3.org/TR/2001/REC-SVG-20010904/DTD/svg10.dtd">
<svg version="1.0" xmlns="http://www.w3.org/2000/svg"
 width="260.000000pt" height="260.000000pt" viewBox="0 0 260.000000 260.000000"
 preserveAspectRatio="xMidYMid meet">
<metadata>
Created by potrace 1.11, written by Peter Selinger 2001-2013
</metadata>
<g transform="translate(0.000000,260.000000) scale(0.100000,-0.100000)"
fill="#000000" stroke="none">
<path d="M1059 2425 c-1 -5 -1 -14 0 -18 1 -5 -3 -5 -9 -2 -35 21 -86 5 -55
-17 6 -5 6 -8 -2 -8 -7 0 -17 8 -23 18 -11 16 -11 16 -6 -1 3 -11 0 -20 -9
-23 -8 -4 -13 -9 -10 -13 2 -4 -2 -8 -10 -8 -8 0 -12 4 -9 9 3 4 1 8 -5 8 -5
0 -12 -6 -14 -12 -4 -10 -6 -10 -6 0 -1 6 -6 12 -12 12 -5 0 -7 -4 -4 -10 9
-14 -9 -12 -24 3 -10 10 -12 9 -9 -3 2 -8 8 -18 13 -22 6 -4 -1 -8 -14 -8 -18
0 -21 -3 -13 -12 8 -10 0 -13 -33 -13 -27 0 -41 3 -38 10 4 6 2 6 -5 0 -7 -6
-13 -22 -14 -37 -2 -21 -7 -25 -33 -26 -57 0 -63 -2 -86 -23 -13 -11 -19 -18
-13 -15 7 3 14 0 17 -8 4 -9 -2 -12 -19 -10 -15 1 -22 -2 -17 -9 4 -6 0 -8
-10 -4 -9 3 -16 3 -16 -1 3 -20 -2 -32 -15 -32 -8 0 -18 -5 -22 -12 -4 -6 -3
-8 4 -5 7 5 6 -1 -1 -17 -7 -13 -15 -22 -19 -19 -5 2 -5 9 -2 15 4 7 2 8 -4 4
-6 -4 -9 -13 -5 -21 4 -11 1 -13 -11 -9 -12 5 -15 2 -9 -12 5 -13 3 -15 -7 -9
-10 6 -12 4 -6 -10 5 -15 4 -16 -9 -5 -9 7 -15 9 -14 4 3 -19 -1 -34 -12 -34
-5 0 -7 6 -3 13 6 9 4 9 -8 -1 -9 -7 -15 -22 -13 -33 2 -11 0 -17 -5 -14 -6 3
-18 1 -27 -4 -10 -6 -12 -11 -5 -11 6 0 12 -5 12 -11 0 -5 -4 -7 -10 -4 -5 3
-10 1 -10 -5 0 -6 -5 -8 -12 -4 -8 5 -9 2 -4 -11 5 -15 4 -16 -9 -5 -13 11
-14 10 -9 -4 5 -12 2 -15 -12 -10 -15 5 -16 4 -5 -4 20 -14 22 -52 3 -44 -11
4 -14 1 -9 -12 5 -12 0 -19 -16 -25 -12 -5 -25 -7 -28 -5 -3 2 -4 -7 -3 -19 1
-12 3 -22 4 -22 1 0 3 -10 4 -22 2 -13 -2 -19 -7 -16 -6 4 -8 -1 -3 -12 6 -16
4 -16 -11 -4 -15 12 -16 12 -10 -3 4 -12 2 -18 -8 -18 -7 0 -17 -5 -21 -12 -5
-7 -3 -8 7 -3 8 5 7 0 -4 -12 -9 -11 -14 -23 -10 -27 11 -10 14 -48 4 -41 -5
3 -13 0 -17 -6 -4 -7 -3 -9 3 -6 6 4 14 0 17 -9 9 -22 8 -26 -6 -18 -8 5 -9 0
-6 -14 4 -12 1 -25 -4 -29 -7 -3 -8 -1 -4 5 4 7 2 12 -4 12 -6 0 -8 5 -4 12 4
6 3 8 -3 5 -6 -4 -9 -20 -8 -37 1 -16 -1 -27 -6 -24 -5 3 -7 9 -4 14 3 5 2 11
-3 14 -4 2 -8 -6 -8 -20 0 -13 4 -24 9 -24 4 0 5 -6 0 -12 -12 -20 -12 -39 -1
-32 6 4 8 1 6 -7 -3 -8 -11 -13 -17 -11 -7 1 -10 -2 -6 -8 3 -6 11 -8 16 -5 5
4 9 1 9 -4 0 -6 -8 -11 -17 -12 -14 0 -12 -3 5 -10 13 -5 20 -13 17 -19 -9
-15 -18 -12 -9 3 4 6 3 8 -1 4 -12 -10 -15 -38 -4 -31 5 3 9 0 9 -5 0 -6 -6
-11 -12 -11 -9 0 -8 -4 2 -10 14 -9 7 -14 -13 -11 -5 1 -6 -3 -2 -9 3 -6 11
-8 16 -5 5 4 9 1 9 -4 0 -6 -8 -11 -17 -12 -14 0 -12 -3 5 -10 13 -5 20 -13
17 -19 -9 -15 -18 -12 -9 3 4 6 3 8 -1 4 -17 -15 -14 -39 3 -33 13 5 12 2 -2
-9 -13 -10 -15 -15 -6 -15 9 0 7 -5 -6 -15 -16 -13 -16 -14 -2 -9 10 3 18 1
18 -5 0 -6 -5 -11 -11 -11 -6 0 -3 -7 5 -16 19 -19 21 -31 3 -15 -10 8 -14 7
-14 -4 0 -8 4 -15 9 -15 4 0 8 -12 8 -26 0 -17 4 -23 12 -18 7 5 9 2 5 -9 -4
-11 -2 -14 7 -11 7 3 16 -2 19 -10 4 -11 1 -13 -11 -9 -14 5 -14 3 2 -9 14
-11 16 -20 10 -39 -11 -34 -12 -59 -3 -65 4 -2 6 -13 4 -24 -2 -12 0 -18 5
-15 4 3 16 -2 24 -11 9 -8 16 -11 16 -6 0 5 -10 17 -23 26 l-22 17 23 -11 c13
-6 25 -19 28 -28 3 -9 10 -26 16 -37 10 -18 9 -18 -5 -7 -12 11 -17 11 -23 0
-4 -7 -3 -10 1 -5 11 9 46 -44 38 -57 -4 -6 2 -4 12 4 10 8 16 9 11 3 -4 -8 8
-27 31 -50 21 -20 33 -34 28 -31 -6 4 -11 -3 -12 -15 0 -12 1 -16 4 -9 3 6 9
12 14 12 5 0 4 -11 -1 -26 -7 -19 -7 -23 2 -18 8 5 9 2 4 -11 -5 -15 -4 -16 8
-6 11 9 16 9 22 0 4 -8 3 -9 -4 -5 -7 4 -12 2 -12 -3 0 -10 14 -15 33 -12 5 1
6 -3 3 -8 -6 -9 22 -26 37 -22 4 1 3 -7 -2 -18 -9 -17 -8 -18 12 -13 19 5 20
3 9 -11 -12 -14 -10 -15 14 -11 24 4 26 3 14 -11 -7 -8 -10 -18 -6 -22 3 -3 6
-1 6 6 0 9 4 8 15 -3 8 -8 15 -19 15 -25 0 -6 5 -11 11 -11 5 0 7 5 3 12 -5 7
-3 8 5 4 7 -5 10 -11 6 -14 -3 -3 5 -12 17 -20 13 -7 15 -11 6 -8 -25 7 -22
-1 3 -15 16 -8 23 -8 29 1 5 9 9 9 14 1 4 -6 2 -11 -4 -11 -6 0 -8 -5 -5 -10
4 -6 10 -8 15 -5 5 3 14 -3 20 -14 7 -13 16 -18 27 -14 12 5 14 3 8 -8 -8 -12
-6 -12 8 0 12 9 17 10 17 2 0 -7 5 -9 10 -6 6 3 10 -4 10 -15 0 -16 4 -20 16
-16 12 5 14 1 10 -17 -3 -12 -3 -16 0 -9 5 10 9 10 22 0 15 -12 16 -11 3 5
-16 21 1 23 19 2 7 -8 21 -15 31 -15 11 0 19 -7 19 -17 0 -15 -2 -16 -10 -3
-6 9 -10 10 -10 3 0 -17 17 -25 26 -12 5 8 9 8 14 -1 4 -7 25 -14 46 -16 22
-2 33 0 26 5 -8 5 -2 8 18 8 19 0 30 -5 30 -14 0 -8 5 -11 10 -8 13 8 13 -8 0
-23 -6 -6 -7 -10 -4 -7 4 3 14 -1 22 -8 10 -8 13 -8 9 -1 -4 7 0 14 8 17 10 4
12 1 8 -11 -6 -14 -4 -15 9 -4 13 10 17 10 21 0 4 -10 7 -10 18 1 12 12 12 13
0 6 -10 -6 -12 -4 -6 4 5 9 12 7 26 -8 22 -23 38 -29 20 -7 -9 11 -9 16 0 22
7 4 9 3 6 -3 -4 -6 0 -14 9 -17 8 -3 12 -2 9 4 -3 6 -1 10 4 10 6 0 11 -6 11
-12 0 -9 4 -8 10 2 9 13 10 13 11 0 0 -10 3 -8 9 5 l9 20 0 -20 c1 -17 3 -17
11 -5 5 8 10 10 10 4 0 -17 28 -25 36 -12 4 6 3 8 -4 4 -6 -3 -14 -1 -18 6 -4
7 -4 10 1 6 4 -4 16 -3 26 3 15 8 17 6 12 -8 -5 -15 -3 -16 7 -6 11 10 16 9
24 -2 8 -11 15 -12 26 -4 13 9 12 10 -2 5 -10 -3 -18 -2 -18 3 0 5 11 11 24
13 19 4 23 1 19 -11 -5 -13 -3 -14 7 -4 11 10 16 9 25 -4 10 -13 14 -13 20 -3
5 9 4 11 -3 6 -7 -4 -12 -2 -12 3 0 15 30 14 31 -1 0 -7 4 -4 9 7 8 18 9 18 9
2 1 -11 6 -17 14 -14 6 2 11 11 9 18 -1 8 4 5 13 -5 15 -20 15 -20 16 0 1 10
1 23 0 28 -1 5 5 4 13 -4 11 -8 16 -9 17 -1 3 26 4 30 13 38 5 5 6 3 2 -4 -4
-8 -1 -13 8 -13 9 0 16 4 16 8 0 4 15 7 34 7 19 0 32 -3 29 -7 -2 -5 3 -8 11
-8 8 0 18 5 22 12 5 7 3 8 -6 3 -9 -5 -11 -4 -6 4 6 9 11 9 22 0 12 -10 13 -9
8 6 -5 13 -4 16 4 11 8 -4 10 -2 6 7 -3 8 -1 18 5 22 6 3 11 -2 12 -12 0 -16
1 -16 9 2 6 14 9 15 10 5 0 -11 4 -10 16 5 13 16 15 17 12 3 -2 -9 0 -17 5
-17 4 -1 6 0 5 2 -6 8 25 46 34 41 6 -4 8 2 4 17 -3 13 -3 18 0 11 3 -6 11 -9
16 -6 7 5 8 2 3 -7 -8 -12 -6 -12 8 0 14 11 17 11 17 0 1 -9 4 -8 11 4 8 14
14 15 24 7 15 -13 16 5 1 28 -7 11 -4 12 12 3 23 -12 31 -5 26 24 -2 18 -2 18
10 3 11 -15 13 -15 25 4 7 11 8 17 2 13 -20 -12 -11 12 11 31 14 11 18 13 10
3 -9 -12 -9 -16 1 -16 7 0 14 10 15 21 0 11 6 22 12 24 5 2 7 9 3 15 -4 7 2 5
12 -3 14 -11 17 -11 11 -1 -7 10 -3 11 15 6 22 -7 23 -7 9 11 -8 10 -10 16 -6
12 5 -4 15 0 23 10 8 9 12 11 8 4 -5 -9 0 -11 19 -8 23 4 25 2 16 -14 -14 -25
-13 -37 2 -22 17 17 31 15 24 -4 -6 -15 -4 -15 10 -3 16 13 16 12 4 -11 -7
-14 -9 -22 -5 -18 4 4 16 -2 26 -13 10 -11 20 -16 23 -10 11 17 44 8 41 -11
-2 -10 1 -20 6 -23 5 -4 6 -12 2 -18 -5 -8 -2 -8 9 0 8 7 18 10 22 6 4 -4 12
-1 17 7 8 11 9 9 4 -8 -4 -12 -3 -22 2 -21 19 3 25 -2 14 -15 -9 -11 -6 -13
14 -11 14 2 25 -1 25 -6 0 -6 5 -7 10 -4 6 4 8 10 5 14 -2 5 7 7 20 5 14 -1
23 2 19 7 -3 5 -9 7 -13 5 -4 -3 -8 1 -8 9 0 11 4 12 14 3 7 -6 16 -8 20 -4 4
3 -2 13 -13 21 -16 13 -16 14 -1 9 9 -3 17 -2 18 2 0 5 2 17 4 26 2 12 -2 15
-13 11 -10 -4 -14 -3 -10 2 4 4 3 16 -2 25 -7 12 -6 21 4 29 7 6 15 9 17 6 3
-2 5 4 5 15 0 10 -3 17 -7 14 -4 -2 -10 3 -13 12 -4 9 -2 13 5 8 7 -4 10 -1 7
7 -3 8 -11 13 -17 11 -17 -3 -13 15 5 22 10 4 13 2 8 -6 -4 -7 -3 -8 4 -4 17
10 15 15 -10 26 -19 7 -19 9 -5 9 10 1 16 5 12 11 -3 5 -13 7 -23 4 -15 -5
-15 -5 1 6 9 6 22 8 27 5 6 -3 7 1 4 10 -4 9 -13 14 -21 11 -8 -3 -11 -1 -8 5
4 5 1 18 -6 27 -12 14 -10 14 8 -1 16 -14 23 -15 29 -6 4 7 3 10 -3 6 -6 -4
-14 0 -17 9 -4 10 -2 13 6 8 7 -5 9 -2 5 8 -3 9 0 21 6 28 9 10 9 11 0 6 -6
-3 -14 -2 -17 3 -4 5 2 12 11 14 17 4 17 5 1 6 -10 0 -18 6 -18 12 0 5 5 7 10
4 6 -3 10 -1 10 4 0 6 -4 11 -10 11 -5 0 -10 5 -10 11 0 6 6 9 13 6 7 -3 13 3
13 14 0 12 -4 15 -12 8 -8 -6 -16 -3 -25 8 -13 17 -13 17 5 3 18 -14 19 -13
13 3 -5 12 -3 16 4 11 7 -4 10 -1 7 7 -3 8 -11 13 -17 11 -17 -3 -13 15 5 22
10 4 13 2 8 -6 -4 -7 -3 -8 4 -4 17 10 15 15 -10 26 -19 7 -19 9 -5 9 10 1 16
5 12 11 -3 5 -13 7 -23 4 -15 -5 -15 -5 1 6 9 6 22 8 27 5 6 -3 7 1 4 10 -4 9
-13 14 -21 11 -8 -3 -11 -1 -8 5 4 5 1 18 -6 27 -12 14 -10 14 8 -1 16 -14 23
-15 29 -6 4 7 3 10 -3 6 -6 -4 -14 0 -17 9 -4 9 -2 13 5 8 7 -4 10 -1 7 7 -3
8 2 23 11 34 15 18 15 19 -1 6 -12 -8 -18 -9 -18 -3 0 6 -8 9 -17 6 -15 -5
-15 -4 -3 4 8 6 17 9 21 6 4 -2 11 1 15 7 4 7 3 9 -3 6 -6 -4 -16 0 -22 7 -10
11 -8 17 6 25 10 6 13 11 8 11 -6 0 -16 10 -24 23 l-14 22 23 -20 23 -20 -13
25 c-13 24 -12 24 5 10 17 -14 18 -14 6 8 -7 12 -16 20 -21 17 -5 -3 -12 0
-16 7 -4 7 -4 10 1 6 4 -4 15 -2 23 5 13 10 14 9 7 -2 -5 -10 -4 -12 3 -7 17
10 15 15 -10 26 -19 7 -19 9 -5 9 10 1 16 5 12 11 -3 5 -11 8 -18 6 -7 -1 -9
-1 -4 1 4 3 4 9 1 15 -4 5 4 4 17 -2 l24 -13 -20 23 c-11 13 -14 20 -7 16 6
-4 12 -2 12 3 0 6 -10 11 -22 12 -22 1 -22 1 2 9 22 7 21 10 -9 14 -5 0 -13 4
-17 8 -3 4 3 5 16 3 19 -4 20 -2 8 12 -8 10 -8 14 -1 10 6 -4 15 -3 18 3 4 6
3 10 -2 9 -4 -1 -19 3 -33 10 l-25 11 27 -5 c15 -3 30 0 33 5 4 6 3 10 -2 9
-21 -4 -34 2 -27 13 5 8 2 9 -9 5 -10 -3 -17 -2 -17 3 0 6 5 10 11 10 6 0 4 7
-5 15 -17 17 -11 49 8 38 6 -4 5 1 -3 10 -7 9 -18 14 -25 10 -6 -3 0 6 14 22
18 20 20 26 8 22 -13 -4 -16 -1 -13 15 3 12 10 25 17 30 10 6 9 8 -4 8 -9 0
-20 5 -24 12 -5 7 -2 9 9 5 11 -4 14 -2 11 7 -3 8 -17 12 -37 10 -22 -3 -28
-1 -17 5 8 6 18 7 22 5 4 -3 8 0 8 5 0 6 -10 11 -22 11 -19 0 -20 2 -8 10 8 5
10 10 5 10 -6 0 -11 9 -11 19 0 11 4 17 8 15 4 -3 5 2 2 11 -8 19 -41 38 -54
30 -5 -3 -11 -1 -15 5 -3 6 0 13 8 16 9 3 13 13 10 25 -5 16 -8 18 -15 7 -7
-9 -8 -8 -4 5 6 18 -21 57 -33 48 -3 -3 -16 10 -28 28 -12 17 -25 31 -29 29
-4 -2 -8 7 -9 19 -1 13 3 20 9 16 6 -3 1 5 -11 19 -13 13 -23 29 -23 35 0 6
-6 14 -12 16 -10 4 -10 8 0 15 11 8 11 10 -1 15 -8 3 -19 1 -25 -5 -7 -7 -12
-3 -17 11 -3 12 -11 21 -16 21 -6 0 -7 5 -4 10 3 6 1 10 -5 10 -6 0 -8 6 -4
13 6 10 4 10 -7 0 -18 -18 -29 -16 -29 5 0 14 2 15 10 2 8 -13 10 -12 10 3 0
19 -26 23 -33 5 -3 -7 -6 -4 -6 7 -1 11 -6 27 -12 35 -9 13 -10 12 -5 -2 3
-12 1 -15 -9 -11 -8 3 -12 10 -9 17 3 6 -2 2 -10 -8 -16 -20 -16 -19 -16 1 0
17 -5 20 -22 16 -19 -4 -20 -3 -8 6 12 9 11 11 -7 11 -17 0 -23 6 -23 21 0 17
-5 20 -21 16 -16 -4 -18 -3 -9 8 8 9 6 14 -5 19 -11 4 -14 2 -9 -6 4 -7 3 -8
-4 -4 -7 4 -12 15 -12 24 0 14 -1 14 -13 -1 -11 -16 -14 -16 -35 -2 -12 9 -20
21 -16 26 3 6 -3 13 -15 16 -11 3 -19 9 -16 13 3 5 0 12 -6 16 -7 4 -9 3 -5
-4 3 -6 2 -13 -4 -17 -5 -3 -10 0 -10 7 0 9 -3 9 -10 -2 -8 -12 -10 -12 -10
-1 0 9 -4 10 -12 4 -16 -12 -49 -13 -42 -1 3 4 1 8 -5 8 -5 0 -12 -6 -14 -12
-3 -8 -6 -6 -6 5 -1 9 -5 17 -11 17 -5 0 -10 5 -10 11 0 5 6 7 13 3 7 -4 9 -3
4 2 -5 5 -14 9 -20 9 -7 1 -11 7 -9 15 1 9 -6 5 -18 -9 -11 -13 -20 -18 -20
-12 0 7 -6 11 -12 10 -27 -3 -49 1 -44 9 3 5 -1 9 -9 9 -11 0 -12 -5 -4 -21 9
-18 7 -18 -10 3 -19 21 -26 20 -22 -1 0 -4 -6 -5 -14 -2 -8 4 -12 11 -8 18 3
6 -3 2 -15 -8 -12 -11 -25 -16 -29 -13 -3 4 -1 7 5 7 7 0 12 5 12 10 0 7 -7 7
-21 0 -14 -8 -24 -8 -33 -1 -8 7 -16 7 -23 0 -6 -6 -18 -6 -36 0 -18 7 -28 7
-33 -1 -5 -7 -2 -8 7 -3 12 8 12 6 0 -8 -14 -18 -22 -22 -20 -9 3 20 -2 33
-11 27 -6 -4 -7 -11 -4 -17 5 -7 1 -7 -11 -1 -19 11 -52 7 -72 -9 -7 -5 -14
-5 -18 2 -4 6 -1 9 6 8 6 -2 13 2 15 7 5 12 -42 12 -53 0 -5 -4 -1 -4 7 0 13
8 13 7 1 -8 -14 -17 -26 -24 -17 -9 2 4 1 14 -5 22 -5 8 -9 11 -10 5z m698
-91 c-3 -3 -12 -4 -19 -1 -8 3 -5 6 6 6 11 1 17 -2 13 -5z m-1107 -114 c0 -5
-2 -10 -4 -10 -3 0 -8 5 -11 10 -3 6 -1 10 4 10 6 0 11 -4 11 -10z m535 -390
c-3 -5 0 -12 6 -16 8 -4 9 -3 5 4 -4 7 -2 12 4 12 6 0 8 5 4 12 -4 7 -3 8 5 4
6 -4 9 -11 6 -16 -3 -5 -1 -11 5 -15 5 -3 10 1 10 9 0 20 17 29 26 15 5 -8 3
-9 -7 -4 -12 8 -12 6 0 -8 16 -20 18 -20 27 -5 5 7 3 8 -6 3 -9 -5 -11 -4 -6
3 11 18 26 14 27 -5 1 -12 4 -10 9 7 5 16 8 19 9 8 1 -9 6 -20 13 -24 7 -5 8
-3 3 6 -6 10 -4 12 8 7 10 -3 17 -2 17 2 0 5 7 12 16 15 14 5 15 4 5 -8 -9
-11 -9 -16 0 -22 7 -4 9 -3 6 3 -5 7 11 12 42 15 33 2 47 -1 44 -8 -2 -7 6
-10 22 -9 22 3 24 1 14 -11 -9 -11 -7 -14 10 -14 11 0 21 -5 21 -11 0 -8 5 -7
15 1 9 7 18 10 22 6 3 -3 0 -6 -8 -7 -8 -1 -3 -4 11 -8 15 -5 24 -14 24 -25
-2 -14 1 -15 14 -4 13 11 15 10 9 -4 -7 -20 17 -43 37 -35 10 4 13 -1 11 -19
-2 -21 0 -22 13 -12 13 11 14 11 7 -1 -6 -11 -4 -13 7 -9 8 4 15 0 15 -8 0 -7
-5 -10 -10 -7 -6 4 -7 1 -3 -6 5 -7 14 -10 22 -7 8 3 11 0 7 -10 -4 -10 0 -12
11 -8 12 4 15 2 10 -9 -3 -8 0 -18 7 -23 7 -4 10 -3 5 4 -3 6 -2 13 3 17 6 3
8 -6 5 -21 -3 -16 -1 -23 6 -19 5 3 10 1 10 -4 0 -10 -14 -15 -33 -12 -5 1 -6
-3 -3 -8 4 -5 15 -8 26 -6 15 3 20 -2 20 -16 0 -11 4 -18 9 -14 5 3 12 1 16
-5 3 -5 1 -10 -5 -10 -6 0 -3 -12 7 -27 l17 -28 -24 20 c-14 11 -19 13 -12 5
6 -8 12 -25 12 -38 0 -15 -4 -21 -12 -17 -7 4 -3 -2 10 -13 25 -23 28 -33 10
-28 -7 1 -10 1 -5 -1 4 -3 4 -10 1 -15 -4 -6 -2 -8 4 -4 6 3 14 1 18 -5 4 -8
3 -9 -4 -5 -7 4 -12 2 -12 -4 0 -6 -4 -8 -10 -5 -5 3 -10 1 -10 -6 0 -6 8 -9
20 -6 11 3 23 1 26 -4 3 -5 2 -9 -3 -8 -20 3 -33 -2 -30 -13 1 -7 -5 -12 -13
-10 -11 3 -11 -1 3 -16 17 -19 24 -47 9 -38 -5 3 -8 -5 -7 -17 1 -12 -3 -26
-9 -30 -7 -6 -4 -7 7 -3 11 4 16 2 12 -5 -4 -5 -1 -16 5 -24 15 -18 -1 -20
-19 -2 -8 6 -6 0 3 -15 12 -17 14 -28 6 -33 -6 -3 -7 -11 -4 -17 4 -7 2 -8 -5
-4 -9 6 -9 11 0 22 7 8 7 14 1 14 -13 0 -24 -29 -15 -43 4 -7 -1 -6 -10 2 -10
8 -20 11 -24 7 -3 -3 -1 -6 5 -6 6 0 9 -7 5 -17 -5 -12 -3 -14 8 -9 8 4 6 1
-3 -7 -14 -11 -15 -16 -5 -27 8 -8 8 -11 1 -7 -7 4 -14 -2 -17 -14 -4 -16 -11
-20 -26 -16 -18 4 -19 3 -9 -16 10 -20 10 -21 -6 -8 -14 12 -16 12 -10 -2 4
-12 1 -15 -14 -12 -15 3 -19 -2 -16 -21 2 -21 -1 -24 -18 -18 -13 4 -18 2 -14
-4 4 -6 -3 -20 -15 -31 -17 -16 -26 -18 -36 -10 -10 9 -13 7 -14 -7 -1 -11 -1
-22 0 -26 0 -3 -12 -5 -27 -3 -15 2 -33 -2 -39 -7 -7 -6 -13 -7 -13 -3 0 4 -7
2 -15 -5 -8 -7 -22 -10 -30 -6 -9 3 -14 2 -10 -3 3 -5 2 -16 -1 -25 -6 -15 -8
-15 -20 1 -13 17 -13 17 -14 0 0 -10 -5 -15 -10 -12 -6 4 -8 10 -6 14 3 4 -6
7 -20 7 -18 0 -23 -4 -19 -15 4 -10 -1 -9 -16 5 -22 19 -22 19 -15 0 6 -19 6
-19 -12 -3 -17 15 -20 15 -42 0 -13 -9 -20 -11 -16 -5 8 13 -1 15 -51 12 -18
-1 -33 3 -33 9 0 6 -5 11 -11 11 -5 0 -7 -5 -4 -10 3 -6 1 -10 -4 -10 -14 0
-14 13 1 28 16 16 -4 16 -21 0 -11 -10 -13 -10 -7 0 5 8 -1 12 -19 12 -18 0
-24 4 -19 13 5 9 4 9 -6 0 -10 -9 -17 -7 -33 8 -11 10 -27 19 -34 19 -7 0 -13
5 -13 11 0 5 -4 8 -9 5 -4 -3 -17 4 -27 16 -11 12 -14 18 -7 15 19 -12 24 10
6 24 -9 8 -14 10 -11 4 3 -5 0 -15 -7 -22 -18 -16 -28 9 -12 27 9 10 9 11 0 6
-18 -10 -54 15 -42 30 7 8 6 15 -2 20 -8 5 -10 3 -4 -7 6 -10 5 -11 -4 -3 -7
6 -13 20 -14 31 -1 14 -6 19 -16 15 -10 -4 -12 -1 -6 9 7 11 5 11 -10 -1 -17
-14 -18 -13 -12 3 4 12 1 17 -11 17 -15 0 -15 2 -2 10 8 5 10 10 5 10 -6 0
-16 10 -24 23 -10 17 -11 19 0 10 24 -23 31 -14 11 15 -20 28 -19 57 1 45 7
-4 6 1 -2 11 -8 9 -20 15 -27 12 -8 -3 -13 -2 -13 2 3 18 -2 33 -9 28 -4 -2
-8 4 -9 14 -1 11 2 22 8 25 5 3 6 -1 3 -9 -3 -9 -2 -16 4 -16 6 0 9 8 7 18 -2
9 -4 24 -4 32 -1 13 -2 13 -11 0 -11 -17 -13 -10 -4 14 3 9 11 13 18 9 6 -3 2
4 -9 17 l-20 23 25 -12 25 -12 -22 19 c-13 12 -18 23 -13 32 4 7 6 19 3 27 -3
7 0 13 7 13 6 0 8 -4 5 -10 -3 -5 -1 -10 4 -10 15 0 14 27 -1 33 -7 3 -3 6 9
6 12 1 25 6 29 13 4 6 3 9 -2 5 -5 -3 -15 6 -21 20 l-12 25 22 -18 c12 -10 19
-15 15 -10 -4 5 -2 16 5 24 9 13 9 14 0 8 -9 -5 -13 0 -13 14 0 16 4 20 15 16
13 -5 14 -2 4 15 -6 12 -7 19 -2 16 5 -3 15 3 23 13 8 10 17 17 20 15 4 -3 6
7 4 20 -2 27 5 32 24 13 9 -9 9 -4 2 22 -7 26 -7 31 2 22 7 -7 17 -12 22 -12
6 0 5 5 -2 12 -15 15 -15 28 -1 28 5 0 7 -4 4 -10 -3 -5 -1 -10 4 -10 6 0 11
5 11 10 0 6 7 10 15 10 8 0 12 6 9 14 -3 8 0 17 7 22 8 4 10 3 5 -4 -4 -7 -2
-12 3 -12 6 0 11 7 11 15 0 8 5 15 11 15 5 0 8 -4 4 -9 -3 -5 -1 -12 4 -15 11
-7 9 13 -2 32 -12 17 -1 15 19 -5 16 -16 16 -16 11 2 -4 11 -2 27 4 35 10 13
10 13 6 -1 -4 -11 1 -15 16 -13 12 1 24 3 27 4 3 1 8 2 13 1 4 0 8 6 8 14 3
29 4 33 13 42 5 4 6 3 2 -4 -4 -8 1 -11 13 -10 16 1 18 4 8 16 -10 12 -9 13
10 3 25 -14 33 -15 32 -4 -3 16 2 23 11 17 6 -4 8 -10 5 -15z m-885 -24 c0 -2
-7 -7 -16 -10 -8 -3 -12 -2 -9 4 6 10 25 14 25 6z m770 -21 c-7 -9 -15 -13
-19 -10 -3 3 1 10 9 15 21 14 24 12 10 -5z m575 -65 c3 -5 1 -10 -4 -10 -6 0
-11 5 -11 10 0 6 2 10 4 10 3 0 8 -4 11 -10z m201 -442 c4 -7 3 -8 -4 -4 -7 4
-12 2 -12 -3 0 -6 -5 -11 -11 -11 -8 0 -8 5 1 15 15 18 17 18 26 3z m-16 -78
c0 -5 -5 -10 -11 -10 -5 0 -7 5 -4 10 3 6 8 10 11 10 2 0 4 -4 4 -10z m610
-134 c0 -3 -4 -8 -10 -11 -5 -3 -10 -1 -10 4 0 6 5 11 10 11 6 0 10 -2 10 -4z
m-2210 -106 c0 -5 -5 -10 -11 -10 -5 0 -7 5 -4 10 3 6 8 10 11 10 2 0 4 -4 4
-10z m0 -40 c0 -5 -2 -10 -4 -10 -3 0 -8 5 -11 10 -3 6 -1 10 4 10 6 0 11 -4
11 -10z m799 -93 c8 -10 7 -14 -2 -14 -8 0 -14 6 -14 14 0 7 1 13 2 13 2 0 8
-6 14 -13z m1411 -81 c0 -3 -4 -8 -10 -11 -5 -3 -10 -1 -10 4 0 6 5 11 10 11
6 0 10 -2 10 -4z m-1 -230 c-3 -3 -11 5 -18 17 -13 21 -12 21 5 5 10 -10 16
-20 13 -22z m-209 -52 c0 -8 -19 -13 -24 -6 -3 5 1 9 9 9 8 0 15 -2 15 -3z
m73 -48 c6 -15 -17 -16 -30 -1 -4 4 -2 5 5 1 6 -4 12 -2 12 3 0 15 7 14 13 -3z
m-1613 -54 c0 -15 -2 -15 -10 -2 -13 20 -13 33 0 25 6 -3 10 -14 10 -23z m160
-66 c0 -3 -4 -8 -10 -11 -5 -3 -10 -1 -10 4 0 6 5 11 10 11 6 0 10 -2 10 -4z"/>
<path d="M785 1140 c3 -5 8 -10 11 -10 2 0 4 5 4 10 0 6 -5 10 -11 10 -5 0 -7
-4 -4 -10z"/>
<path d="M1726 993 c-6 -14 -5 -15 5 -6 7 7 10 15 7 18 -3 3 -9 -2 -12 -12z"/>
<path d="M896 948 c3 -5 10 -6 15 -3 13 9 11 12 -6 12 -8 0 -12 -4 -9 -9z"/>
<path d="M1587 863 c6 -16 8 -16 23 1 9 12 8 15 -8 13 -12 0 -18 -6 -15 -14z"/>
<path d="M1505 830 c-4 -6 -10 -8 -15 -5 -5 3 -12 0 -15 -6 -4 -5 -14 -8 -24
-4 -12 5 -13 4 -4 -6 9 -9 16 -9 26 -1 8 7 16 10 19 7 3 -3 11 1 18 10 7 8 10
15 7 15 -3 0 -9 -5 -12 -10z"/>
<path d="M1535 830 c-3 -5 -2 -10 4 -10 5 0 13 5 16 10 3 6 2 10 -4 10 -5 0
-13 -4 -16 -10z"/>
<path d="M1510 2419 c0 -5 5 -7 10 -4 6 3 10 8 10 11 0 2 -4 4 -10 4 -5 0 -10
-5 -10 -11z"/>
<path d="M2164 2028 c3 -15 26 -23 26 -8 0 6 -4 9 -9 6 -5 -4 -12 -1 -14 4 -3
6 -4 5 -3 -2z"/>
<path d="M2221 1919 c11 -22 29 -34 29 -20 0 6 -5 11 -11 11 -6 0 -9 6 -6 13
3 8 -1 14 -8 14 -10 0 -11 -5 -4 -18z"/>
<path d="M260 779 c0 -5 5 -7 10 -4 6 3 10 8 10 11 0 2 -4 4 -10 4 -5 0 -10
-5 -10 -11z"/>
<path d="M436 552 c-3 -5 1 -9 9 -9 8 0 12 4 9 9 -3 4 -7 8 -9 8 -2 0 -6 -4
-9 -8z"/>
<path d="M2115 519 c-4 -6 -5 -12 -2 -15 2 -3 7 2 10 11 7 17 1 20 -8 4z"/>
<path d="M2436 475 c4 -8 8 -15 10 -15 2 0 4 7 4 15 0 8 -4 15 -10 15 -5 0 -7
-7 -4 -15z"/>
<path d="M2235 430 c3 -5 8 -10 11 -10 2 0 4 5 4 10 0 6 -5 10 -11 10 -5 0 -7
-4 -4 -10z"/>
<path d="M1599 223 c-13 -16 -12 -17 4 -4 16 13 21 21 13 21 -2 0 -10 -8 -17
-17z"/>
</g>
</svg>
