<?xml version="1.0" standalone="no"?>
<!DOCTYPE svg PUBLIC "-//W3C//DTD SVG 20010904//EN"
 "http://www.w3.org/TR/2001/REC-SVG-20010904/DTD/svg10.dtd">
<svg version="1.0" xmlns="http://www.w3.org/2000/svg"
 width="720.000000pt" height="720.000000pt" viewBox="0 0 720.000000 720.000000"
 preserveAspectRatio="xMidYMid meet">
<metadata>
Created by potrace 1.11, written by Peter Selinger 2001-2013
</metadata>
<g transform="translate(0.000000,720.000000) scale(0.100000,-0.100000)"
fill="#000000" stroke="none">
<path d="M3455 5151 c-3 -5 -2 -12 3 -15 5 -3 9 1 9 9 0 17 -3 19 -12 6z"/>
<path d="M3547 5136 c-4 -9 -17 -13 -39 -11 -18 2 -38 -1 -44 -6 -8 -6 -14 -4
-18 6 -3 8 -11 15 -18 14 -10 0 -10 -2 0 -6 6 -2 12 -9 12 -14 0 -5 -10 -4
-22 2 -22 11 -22 11 -8 -6 14 -17 13 -17 -9 -10 -18 5 -22 4 -16 -6 5 -8 -1
-6 -12 4 -16 14 -20 14 -20 2 0 -8 4 -12 9 -9 4 3 8 2 8 -3 0 -4 -14 -16 -30
-25 -17 -9 -30 -13 -30 -8 0 6 -5 10 -11 10 -5 0 -7 -5 -4 -10 8 -13 -14 -42
-26 -34 -5 3 -7 9 -4 14 3 5 1 11 -4 15 -6 3 -8 -4 -6 -16 5 -26 -12 -52 -28
-42 -6 3 -7 1 -3 -5 4 -7 2 -12 -3 -12 -6 0 -10 -3 -9 -7 1 -5 -6 -20 -15 -35
-10 -14 -49 -106 -86 -202 -37 -97 -71 -173 -76 -169 -4 5 -5 3 -2 -4 8 -13
-140 -406 -154 -411 -5 -2 -7 -8 -4 -13 3 -5 0 -19 -7 -31 -6 -13 -13 -28 -14
-35 -3 -18 -107 -287 -114 -293 -3 -3 -6 -12 -8 -20 -7 -35 -67 -186 -76 -192
-6 -4 -7 -8 -2 -8 5 0 2 -8 -5 -17 -13 -17 -13 -17 7 0 11 9 24 14 29 10 4 -5
5 -2 1 5 -4 6 -2 12 4 12 6 0 8 5 4 12 -4 7 -3 8 4 4 7 -4 12 -1 12 7 0 8 7
18 16 21 8 3 12 2 9 -3 -3 -5 -1 -12 3 -15 5 -3 9 5 8 17 -1 14 10 29 29 42
16 12 30 27 30 35 0 8 27 42 60 75 33 33 60 63 60 66 0 3 13 17 29 32 19 18
33 24 40 18 7 -6 17 -6 26 1 12 8 12 9 -2 4 -10 -3 -18 -1 -18 4 0 6 5 10 11
10 5 0 8 4 5 9 -3 4 4 17 15 27 16 15 24 16 39 6 14 -9 21 -9 26 0 4 6 3 8 -3
5 -6 -4 -16 -1 -22 6 -15 19 50 82 76 73 14 -6 16 -5 6 5 -10 10 -8 19 14 41
26 27 27 27 47 10 10 -9 16 -12 13 -5 -4 6 0 19 9 27 8 9 11 16 5 16 -5 0 -15
-8 -20 -17 -6 -10 -11 -13 -11 -7 0 19 29 37 47 30 14 -6 15 -5 6 5 -10 10 -9
15 5 25 24 19 40 17 16 -2 -18 -14 -18 -15 4 -4 13 7 21 17 18 25 -6 16 18 38
47 42 17 2 19 1 7 -6 -8 -5 -18 -7 -24 -4 -5 3 -6 1 -2 -6 9 -15 39 1 42 23 1
10 -2 14 -9 10 -7 -4 -7 -1 1 7 11 12 14 12 22 -1 7 -11 10 -11 10 -2 0 7 5
10 10 7 6 -4 7 -11 4 -17 -5 -7 -2 -8 5 -4 9 6 8 12 -4 26 -11 12 -13 20 -6
25 6 3 11 3 11 -1 0 -4 9 5 21 20 11 14 24 24 29 21 4 -3 10 1 13 9 3 8 16 13
30 12 17 -2 24 1 20 10 -3 7 -1 18 3 25 5 9 11 7 22 -7 13 -18 14 -18 7 6 -7
23 -7 24 10 10 17 -14 18 -13 12 2 -3 9 1 22 9 28 8 7 14 9 14 5 0 -4 9 4 20
18 14 17 28 24 45 22 20 -2 23 0 14 12 -10 11 -8 12 6 7 14 -6 16 -4 10 6 -6
10 -4 12 9 7 14 -6 17 -3 12 8 -3 9 -2 13 3 10 5 -3 12 -1 16 4 3 6 13 7 22 4
11 -4 14 -3 9 6 -4 6 -4 11 1 10 4 -1 10 0 13 1 13 6 190 4 190 -2 0 -5 3 -7
8 -7 4 1 10 0 15 -1 4 -1 13 -3 20 -4 6 -1 11 -10 10 -20 -1 -11 2 -15 8 -9 6
6 -13 69 -51 167 -33 87 -57 163 -53 169 3 7 2 9 -2 4 -11 -9 -47 82 -38 96 4
6 1 7 -7 2 -10 -6 -12 -4 -7 9 4 9 3 15 -2 12 -5 -3 -24 14 -43 39 -19 24 -37
42 -40 40 -3 -3 -11 3 -19 12 -13 16 -12 17 4 4 11 -9 17 -10 17 -2 0 11 -13
15 -37 12 -11 -2 -17 14 -15 39 0 3 -12 6 -26 7 l-27 1 25 -14 c14 -7 21 -13
16 -14 -4 0 -26 10 -47 22 -30 17 -36 24 -27 35 8 11 7 12 -6 7 -9 -3 -16 -10
-16 -15 0 -5 -5 -9 -11 -9 -6 0 -8 9 -4 23 3 12 3 18 -2 12 -4 -5 -15 -12 -23
-13 -44 -11 -49 -10 -43 4 3 8 3 14 0 14 -3 0 -7 -6 -10 -14z m-747 -1451 c0
-2 -10 -10 -22 -16 -21 -11 -22 -11 -9 4 13 16 31 23 31 12z"/>
<path d="M3316 5078 c3 -5 10 -6 15 -3 13 9 11 12 -6 12 -8 0 -12 -4 -9 -9z"/>
<path d="M3850 4999 c0 -5 5 -7 10 -4 6 3 10 8 10 11 0 2 -4 4 -10 4 -5 0 -10
-5 -10 -11z"/>
<path d="M3795 4520 c-3 -5 -1 -10 4 -10 6 0 11 5 11 10 0 6 -2 10 -4 10 -3 0
-8 -4 -11 -10z"/>
<path d="M3820 4518 c0 -4 4 -8 9 -8 6 0 12 4 15 8 3 5 -1 9 -9 9 -8 0 -15 -4
-15 -9z"/>
<path d="M3871 4509 c4 -9 5 -20 1 -24 -4 -5 -1 -5 6 -1 6 4 12 3 12 -3 0 -5
-9 -9 -20 -8 -15 1 -19 6 -14 22 4 15 3 16 -4 6 -6 -8 -17 -11 -25 -8 -11 4
-14 1 -10 -8 3 -8 10 -12 16 -8 6 3 7 1 3 -6 -4 -6 -11 -9 -16 -6 -5 3 -11 1
-15 -5 -4 -6 -11 -7 -17 -4 -6 4 -5 10 3 15 11 7 11 9 1 9 -7 0 -10 5 -6 11 4
8 0 8 -15 0 -23 -13 -29 -23 -8 -15 8 3 13 -4 14 -17 1 -15 -1 -18 -10 -11 -8
7 -18 6 -31 -4 -11 -8 -15 -14 -10 -14 6 0 16 6 24 13 8 6 2 -3 -14 -20 -17
-18 -36 -33 -43 -33 -7 0 -13 -6 -13 -12 0 -9 -4 -8 -10 2 -8 13 -10 13 -10
-2 0 -9 -5 -20 -12 -24 -8 -5 -9 -2 -5 10 4 10 3 15 -3 11 -6 -3 -10 -13 -10
-21 0 -9 -10 -14 -27 -14 -19 0 -24 -3 -15 -9 10 -6 4 -15 -23 -35 -19 -15
-40 -24 -47 -20 -6 4 -8 3 -5 -3 4 -6 0 -16 -8 -23 -12 -10 -15 -10 -15 1 0 8
-6 3 -13 -11 -8 -15 -20 -24 -30 -22 -10 2 -16 -1 -15 -5 2 -4 -10 -20 -25
-35 -27 -27 -53 -28 -69 -4 -5 7 -8 7 -8 -2 0 -7 7 -15 15 -18 8 -4 15 -11 15
-16 0 -6 -7 -8 -15 -4 -8 3 -14 2 -14 -2 3 -17 -2 -32 -10 -32 -5 0 -24 -15
-43 -32 -19 -18 -60 -55 -92 -83 -32 -27 -67 -60 -79 -72 -11 -12 -24 -20 -29
-17 -5 3 -7 2 -6 -3 4 -13 -64 -83 -74 -77 -5 3 -7 0 -6 -8 2 -7 -3 -12 -10
-10 -8 1 -11 -1 -8 -6 3 -5 -21 -34 -52 -65 -31 -30 -77 -79 -102 -106 -24
-28 -50 -51 -57 -51 -6 0 -15 -4 -18 -10 -4 -6 1 -7 12 -3 16 6 16 5 4 -10 -7
-9 -18 -14 -24 -10 -5 3 -7 2 -4 -4 8 -13 -22 -55 -34 -47 -5 3 -8 2 -7 -3 5
-15 -44 -83 -54 -77 -6 4 -9 3 -5 -2 7 -13 -68 -126 -78 -116 -5 4 -5 2 -2 -5
9 -15 -25 -74 -39 -69 -7 3 -10 -6 -8 -20 1 -14 -5 -28 -14 -34 -10 -5 -13
-10 -9 -10 4 0 3 -9 -3 -20 -6 -11 -14 -19 -18 -16 -4 2 -7 -10 -7 -27 -1 -18
-8 -56 -17 -84 -12 -37 -14 -55 -6 -59 7 -5 8 -2 3 6 -5 8 -3 11 6 8 8 -3 13
-12 11 -19 -2 -8 0 -10 4 -6 11 11 14 38 3 31 -17 -10 -9 11 16 40 14 16 25
33 25 38 0 4 5 8 11 8 5 0 8 -4 4 -9 -3 -5 -1 -12 3 -15 5 -3 9 5 8 17 -1 12
3 27 9 33 5 6 26 30 45 52 19 23 39 42 44 42 5 0 0 -10 -12 -23 -32 -34 -27
-43 6 -10 16 17 23 31 18 35 -6 4 -7 10 -3 14 3 4 13 1 22 -6 12 -10 16 -9 21
4 3 9 10 13 15 10 5 -3 6 3 2 12 -5 13 -3 15 7 9 8 -5 11 -4 6 3 -4 6 -13 9
-21 6 -8 -4 -13 -9 -11 -13 3 -4 1 -13 -3 -20 -6 -8 -11 -9 -15 -3 -8 14 120
145 134 137 6 -3 7 -11 4 -17 -4 -7 -2 -8 4 -4 6 4 8 14 5 23 -5 12 -3 14 7 8
10 -6 12 -4 7 7 -9 24 12 39 37 26 19 -10 19 -9 8 5 -11 13 -10 16 8 22 11 4
17 11 14 17 -4 7 -2 8 5 4 6 -4 9 -11 6 -16 -3 -5 -1 -11 4 -14 5 -4 8 5 7 19
-2 14 3 30 10 36 8 6 14 8 14 4 0 -4 12 4 27 19 19 19 35 26 50 23 17 -3 20
-1 14 7 -7 8 -4 16 9 24 12 7 21 8 25 2 9 -15 25 -2 18 15 -3 9 1 15 11 15 9
0 16 5 16 12 0 6 3 8 6 5 4 -4 1 -14 -7 -24 -9 -11 -10 -14 -1 -9 7 4 12 2 12
-8 0 -8 4 -18 10 -21 6 -4 7 2 1 17 -9 26 12 68 34 68 7 0 16 6 19 13 3 6 4 1
1 -13 -5 -25 -5 -25 6 -2 7 12 18 22 26 22 8 0 12 -4 9 -8 -3 -5 1 -9 9 -9 8
0 13 3 12 6 -1 3 5 17 12 29 9 18 19 23 37 19 20 -3 22 -2 13 9 -14 17 -5 18
24 2 19 -10 20 -9 10 4 -7 8 -10 18 -6 21 3 4 12 -1 18 -10 11 -15 13 -14 24
8 11 23 11 23 -3 5 -14 -17 -16 -18 -16 -3 0 9 3 17 8 18 4 0 16 3 27 5 29 7
38 7 60 -1 l20 -8 -20 16 c-11 9 -17 17 -12 18 4 1 10 2 15 3 4 1 17 7 29 14
19 11 22 10 17 -2 -3 -9 -10 -14 -14 -13 -4 1 -7 -2 -6 -8 0 -5 6 -10 13 -11
7 -1 11 3 10 9 -1 7 5 11 14 9 9 -1 20 5 23 14 5 14 4 15 -9 4 -8 -7 -15 -8
-15 -2 0 8 22 23 40 26 3 1 11 5 19 10 9 6 12 5 8 -1 -7 -11 22 -28 31 -18 3
3 0 5 -6 5 -7 0 -12 5 -12 11 0 5 5 7 10 4 6 -3 10 -1 10 5 0 6 5 8 10 5 6 -4
7 -12 3 -18 -5 -8 -2 -8 9 0 8 7 17 10 20 7 3 -3 5 3 5 13 -1 9 4 18 11 19 6
1 14 3 17 4 3 1 8 3 13 4 4 1 12 4 17 7 6 4 18 5 28 4 9 -2 17 2 17 8 0 7 4 6
9 -2 12 -19 51 -22 44 -4 -6 16 -19 17 -26 3 -3 -6 -4 -5 -3 2 2 7 9 14 17 14
8 1 16 3 19 4 24 9 41 7 36 -5 -3 -8 0 -17 6 -21 6 -4 8 -3 4 4 -3 6 -2 13 4
17 6 4 8 11 5 16 -4 5 4 9 17 9 13 0 33 1 46 1 12 0 20 4 17 10 -4 5 4 9 17 8
13 0 32 1 43 3 14 2 19 -2 17 -12 -2 -8 0 -11 5 -7 4 5 8 14 8 20 0 7 9 12 21
12 11 0 29 7 40 15 18 14 18 14 5 -2 -7 -10 -9 -18 -3 -18 14 0 22 24 15 51
-5 16 -3 20 6 14 10 -5 11 -2 7 13 -4 11 -2 23 3 26 6 4 8 13 4 21 -3 8 0 15
6 15 6 0 8 7 5 15 -4 9 0 15 7 15 12 0 12 2 0 9 -7 5 -9 11 -4 14 13 8 8 74
-12 143 -14 53 -56 125 -92 162 -7 8 -10 18 -7 24 4 7 2 8 -5 4 -6 -4 -8 -12
-5 -18 4 -6 -8 0 -27 13 -19 13 -36 25 -39 27 -2 2 2 7 10 12 8 6 10 10 5 10
-6 0 -15 -4 -21 -10 -5 -5 -15 -5 -23 -1 -10 7 -11 13 -1 31 6 12 10 24 7 26
-2 3 -10 -9 -17 -26 -7 -16 -17 -30 -22 -30 -5 0 -7 4 -4 9 3 5 -1 11 -9 15
-8 3 -15 10 -15 16 0 7 7 7 21 -1 13 -6 19 -7 15 -1 -3 6 0 12 6 15 7 2 -3 3
-24 3 -30 -1 -35 -4 -27 -17z m-638 -890 c-8 -8 -13 -7 -18 2 -5 8 -4 10 3 5
7 -4 12 -2 12 5 0 7 3 9 7 6 4 -4 2 -12 -4 -18z"/>
<path d="M3964 4508 c3 -15 54 -19 63 -5 3 6 1 7 -5 3 -6 -3 -14 -2 -17 4 -5
8 -11 8 -20 0 -9 -8 -15 -8 -18 0 -3 6 -4 5 -3 -2z"/>
<path d="M3995 4460 c-3 -5 -1 -10 4 -10 6 0 11 5 11 10 0 6 -2 10 -4 10 -3 0
-8 -4 -11 -10z"/>
<path d="M3634 4425 c-9 -14 -20 -22 -25 -19 -5 3 -9 1 -9 -4 0 -6 7 -12 15
-16 8 -3 14 -2 13 2 -1 4 2 15 7 25 7 17 8 17 22 0 13 -17 13 -16 4 3 -6 12
-7 24 -4 28 3 3 3 6 0 6 -4 0 -14 -11 -23 -25z"/>
<path d="M3670 4440 c0 -5 5 -10 11 -10 5 0 7 5 4 10 -3 6 -8 10 -11 10 -2 0
-4 -4 -4 -10z"/>
<path d="M3513 4323 c4 -3 1 -13 -6 -22 -11 -14 -10 -14 5 -2 16 12 16 31 1
31 -4 0 -3 -3 0 -7z"/>
<path d="M3546 4322 c-2 -4 4 -8 14 -8 10 0 16 4 14 8 -3 4 -9 8 -14 8 -5 0
-11 -4 -14 -8z"/>
<path d="M3444 4284 c-9 -13 -14 -27 -11 -30 3 -3 8 4 12 15 3 12 10 19 14 17
4 -3 13 -1 20 3 10 6 9 10 -3 14 -10 4 -22 -3 -32 -19z"/>
<path d="M3455 4260 c-3 -5 -3 -10 2 -10 4 0 1 -5 -7 -11 -12 -8 -12 -10 -1
-7 8 2 15 12 17 21 3 19 -2 22 -11 7z"/>
<path d="M3297 4133 c-10 -9 -9 -23 1 -23 5 0 9 7 9 15 0 17 -1 18 -10 8z"/>
<path d="M3256 4094 c-8 -20 -8 -24 2 -24 4 0 8 9 9 20 2 24 -3 26 -11 4z"/>
<path d="M3173 4066 c-17 -20 -19 -26 -7 -30 7 -3 13 -2 12 2 -1 4 3 17 10 30
16 29 11 28 -15 -2z"/>
<path d="M3235 4050 c-3 -6 1 -7 9 -4 18 7 21 14 7 14 -6 0 -13 -4 -16 -10z"/>
<path d="M3096 3989 c-14 -16 -21 -29 -16 -29 6 0 13 7 16 15 6 14 8 14 19 -1
11 -15 12 -15 12 0 0 9 -4 16 -9 16 -5 0 -6 5 -3 10 5 8 11 7 21 -1 8 -7 14
-7 14 -1 0 23 -30 19 -54 -9z"/>
<path d="M3175 4009 c-4 -6 -5 -12 -2 -15 2 -3 7 2 10 11 7 17 1 20 -8 4z"/>
<path d="M4686 3928 c-14 -20 -21 -18 -17 5 1 5 -3 6 -9 2 -6 -3 -8 -11 -5
-16 4 -5 -1 -9 -9 -9 -8 0 -17 8 -19 18 -4 14 -5 14 -6 -3 -1 -18 -9 -20 -76
-21 -41 -1 -72 2 -69 7 3 5 -2 6 -10 3 -9 -3 -14 -9 -11 -13 2 -4 -2 -8 -10
-8 -18 0 -19 9 -2 27 6 8 2 6 -11 -5 -27 -23 -62 -30 -62 -12 0 8 -3 8 -9 -2
-11 -18 -39 -23 -61 -11 -10 5 -22 4 -31 -2 -11 -8 -10 -9 4 -4 10 3 15 2 12
-4 -3 -5 -19 -8 -36 -6 -16 2 -31 0 -34 -4 -2 -4 -20 -7 -39 -8 -29 -1 -34 2
-29 15 6 15 5 16 -9 3 -9 -8 -14 -18 -11 -22 2 -5 -1 -8 -6 -8 -6 0 -11 4 -11
8 0 5 -6 9 -14 9 -8 0 -12 -5 -10 -12 3 -6 -6 -12 -18 -12 -13 -1 -32 -3 -43
-6 -12 -2 -23 2 -27 12 -5 12 -7 11 -7 -6 -1 -13 -6 -23 -12 -23 -5 0 -8 4 -5
9 3 4 -1 17 -10 27 -14 18 -15 18 -5 -3 8 -15 8 -24 1 -28 -15 -9 -61 -18 -92
-18 -15 1 -25 -3 -22 -8 3 -5 -2 -10 -10 -10 -29 -3 -34 -4 -42 -11 -4 -5 -12
-8 -18 -8 -5 0 -2 6 9 13 14 11 15 16 5 22 -7 5 -11 4 -8 -1 3 -5 -5 -17 -18
-27 -23 -17 -23 -17 -17 0 5 14 1 13 -16 -5 -13 -13 -27 -19 -34 -15 -7 4 -21
9 -32 10 -16 2 -17 1 -5 -6 8 -5 18 -7 22 -5 4 3 8 0 8 -5 0 -14 -16 -14 -43
1 -20 10 -21 10 -8 -5 9 -11 10 -17 2 -18 -13 -2 -29 -6 -36 -9 -3 -1 -8 -3
-12 -4 -5 -1 -18 -7 -30 -14 -13 -7 -23 -10 -23 -6 0 3 -7 1 -15 -6 -8 -7 -15
-9 -15 -5 0 4 -6 2 -13 -4 -8 -6 -17 -8 -21 -4 -11 11 -36 12 -36 1 0 -6 7 -8
15 -4 8 3 15 2 15 -3 0 -4 -19 -15 -42 -24 -42 -16 -43 -16 -19 2 18 14 21 20
11 26 -9 6 -11 4 -5 -5 6 -10 4 -12 -9 -7 -11 5 -15 3 -10 -5 5 -7 2 -9 -8 -5
-12 4 -14 1 -11 -14 3 -11 2 -19 -3 -17 -5 1 -21 -6 -36 -16 -15 -10 -33 -19
-41 -20 -8 -1 -22 -8 -31 -15 -13 -11 -16 -11 -16 0 0 10 -3 9 -12 -2 -7 -8
-23 -23 -35 -33 -20 -16 -25 -17 -40 -5 -14 12 -16 12 -8 0 5 -9 0 -19 -16
-31 -21 -17 -24 -17 -36 -2 -11 15 -12 15 -7 -3 3 -14 -5 -26 -23 -39 -20 -15
-25 -16 -21 -4 4 9 0 15 -8 15 -8 0 -12 -3 -9 -5 3 -3 -1 -12 -8 -20 -9 -13
-9 -14 1 -8 6 4 12 5 12 2 0 -3 -14 -13 -31 -21 -17 -9 -43 -27 -57 -40 -107
-92 -189 -155 -199 -151 -8 3 -10 -1 -6 -11 4 -11 2 -14 -5 -9 -7 4 -12 1 -12
-7 0 -21 -47 -60 -61 -52 -8 5 -10 4 -5 -4 10 -15 -13 -43 -27 -34 -6 3 -7 1
-3 -6 5 -7 -10 -29 -37 -57 -25 -25 -46 -47 -46 -50 -2 -15 -35 -53 -42 -48
-5 3 -9 2 -8 -3 4 -21 -2 -33 -18 -33 -9 0 -13 -3 -10 -6 9 -10 -12 -46 -23
-39 -6 3 -7 0 -5 -8 3 -7 -7 -27 -22 -43 -15 -16 -26 -35 -25 -42 2 -7 -4 -15
-12 -18 -9 -3 -14 -9 -12 -13 7 -11 -40 -82 -49 -73 -4 4 -5 2 -2 -5 9 -15 -2
-45 -14 -37 -5 3 -6 -2 -3 -10 3 -9 1 -16 -6 -16 -6 0 -9 -4 -5 -9 3 -5 -1
-15 -8 -23 -7 -7 -14 -15 -14 -18 -1 -19 -16 -50 -24 -50 -6 0 -8 -4 -5 -9 3
-5 -5 -33 -18 -62 -13 -30 -34 -86 -47 -126 -21 -67 -21 -74 -7 -90 13 -14 14
-22 6 -38 -11 -19 -11 -19 9 -2 18 16 21 16 27 2 3 -9 2 -13 -3 -10 -5 3 -12
1 -15 -4 -7 -10 13 -9 30 1 6 4 20 -1 30 -11 11 -9 25 -16 32 -13 7 2 10 -2 6
-11 -6 -15 18 -30 51 -31 11 0 26 -7 33 -16 11 -13 11 -11 2 8 -6 12 -15 20
-21 17 -5 -4 -9 -1 -9 4 0 17 15 13 46 -14 19 -17 30 -21 35 -13 6 9 12 8 26
-3 17 -13 17 -13 4 4 -8 10 -21 15 -32 12 -9 -3 -20 -2 -23 3 -3 5 11 10 32
10 20 0 47 2 59 5 15 4 26 0 33 -11 9 -15 10 -14 5 4 -4 14 -1 21 9 21 9 0 13
-5 10 -11 -3 -6 2 -2 11 9 9 11 23 19 32 17 10 -2 13 1 8 10 -3 7 1 4 9 -6 9
-11 16 -15 16 -9 0 6 14 16 30 23 17 7 29 15 26 17 -2 3 -14 0 -25 -7 -14 -7
-21 -7 -21 -1 0 12 45 25 58 17 5 -3 8 5 8 17 -3 25 32 69 47 60 6 -3 7 -1 3
6 -9 14 12 43 25 35 5 -3 9 0 9 6 0 6 5 8 13 4 9 -6 9 -4 -1 8 -11 13 -8 20
18 42 36 30 41 31 60 14 12 -11 12 -10 0 5 -7 10 -19 16 -27 13 -8 -4 -11 -1
-7 5 3 6 14 9 24 6 14 -4 17 0 15 15 -3 13 2 22 15 25 10 3 16 11 14 18 -3 7
0 16 7 21 7 4 10 3 6 -3 -4 -6 0 -13 8 -16 10 -4 12 -1 8 10 -5 12 -3 14 8 8
12 -8 12 -6 0 8 -12 15 -11 17 7 17 12 0 24 5 28 12 5 8 2 9 -10 5 -10 -4 -15
-3 -11 3 3 6 12 10 20 10 8 0 17 5 21 12 4 7 3 8 -4 4 -7 -4 -12 -2 -12 5 0 7
8 9 21 6 15 -4 19 -3 11 5 -12 12 16 47 34 41 6 -2 17 4 25 14 13 16 12 17 -4
4 -15 -12 -17 -12 -11 3 4 11 14 16 26 13 14 -4 17 -2 9 7 -12 15 23 40 42 30
9 -5 9 -4 0 6 -19 20 64 100 99 96 19 -2 25 1 21 11 -4 10 -9 11 -19 2 -9 -7
-14 -8 -14 -1 0 13 26 23 44 16 8 -3 17 0 22 7 4 8 3 10 -4 5 -19 -12 -35 4
-21 20 9 12 15 12 27 2 10 -8 13 -9 9 -1 -9 14 2 43 15 43 7 0 6 -5 -1 -13 -8
-10 -7 -14 4 -14 8 0 12 4 9 9 -3 4 1 8 8 8 10 0 10 2 -1 9 -11 7 -8 14 15 35
35 30 42 31 61 9 12 -14 11 -12 0 8 -17 29 -14 41 9 32 10 -3 12 0 8 10 -5 15
9 30 33 33 6 1 9 -4 7 -10 -3 -7 3 -19 13 -27 16 -12 17 -12 7 1 -18 24 -10
59 19 86 15 14 27 21 27 17 0 -4 5 0 11 10 5 9 17 17 25 17 9 0 12 -5 8 -12
-4 -7 -3 -8 5 -4 9 6 9 11 1 21 -8 10 -8 15 1 21 8 4 9 3 5 -4 -4 -7 -2 -12 3
-12 6 0 11 6 11 13 0 8 9 22 19 31 18 17 20 17 31 -1 10 -16 11 -16 7 4 -4 20
17 51 36 52 13 0 39 17 38 24 -2 16 0 17 22 6 21 -12 21 -11 7 6 -9 11 -10 16
-2 11 6 -4 12 -3 12 3 0 6 10 16 23 22 21 12 21 11 5 -8 -20 -22 -23 -33 -7
-33 5 0 8 4 5 9 -3 5 1 14 10 21 8 7 13 18 10 25 -5 15 23 32 52 30 15 -1 19
2 13 8 -7 7 8 23 42 47 43 31 55 36 72 27 18 -9 18 -8 7 5 -10 13 -10 18 -1
24 7 4 9 3 6 -3 -4 -6 0 -13 8 -16 9 -4 12 -1 9 7 -3 8 9 24 28 37 40 29 58
33 52 11 -5 -14 -4 -14 6 1 6 9 9 21 6 25 -3 4 4 13 14 20 14 9 21 9 26 0 5
-7 3 -8 -6 -3 -9 6 -11 4 -5 -5 6 -9 4 -11 -5 -5 -9 5 -11 4 -6 -4 6 -9 11 -9
22 0 8 6 12 14 9 17 -3 3 0 11 7 19 9 11 14 11 32 -4 12 -10 18 -14 14 -9 -4
5 -2 16 5 25 11 14 10 14 -5 2 -10 -7 -18 -9 -18 -4 0 9 50 37 59 33 2 -1 8 4
13 12 8 10 9 10 5 -2 -2 -8 -10 -14 -16 -12 -7 1 -10 -2 -6 -8 3 -5 1 -10 -4
-10 -6 0 -11 -5 -11 -12 0 -6 11 -1 24 11 14 13 29 20 35 17 5 -4 13 -1 17 5
4 7 3 9 -3 6 -6 -4 -14 1 -17 10 -4 10 -4 14 0 11 3 -4 16 2 28 13 15 15 29
19 51 15 21 -4 26 -3 15 3 -8 6 -11 13 -7 17 3 4 14 1 24 -7 15 -12 16 -12 10
4 -4 11 -3 16 3 12 6 -3 10 -1 10 6 0 7 3 9 6 6 4 -4 20 3 35 14 16 11 29 17
29 13 0 -3 8 0 17 7 9 8 14 9 10 3 -4 -7 0 -14 8 -18 8 -3 17 -1 20 5 4 5 11
6 17 3 7 -4 8 -2 4 5 -4 6 -11 9 -16 6 -5 -3 -12 0 -16 6 -4 8 -3 9 4 5 7 -4
12 -2 12 4 0 6 4 9 9 5 5 -3 12 -1 16 5 4 6 11 8 16 5 5 -4 9 -1 9 5 0 6 4 9
9 5 5 -3 13 -1 16 5 5 8 11 7 21 -1 9 -7 14 -8 13 -3 -4 23 3 24 22 3 19 -23
20 -23 10 -2 -11 21 2 43 16 29 3 -3 11 -1 18 4 6 5 22 12 36 14 13 3 25 5 27
7 1 1 7 3 12 4 6 1 12 4 15 5 3 1 13 3 23 4 9 1 23 5 29 9 7 4 21 3 32 -3 25
-13 31 -13 31 1 0 5 -4 8 -9 4 -5 -3 -12 -1 -16 4 -3 6 4 8 16 6 13 -3 26 -10
31 -17 4 -7 8 -8 8 -2 0 5 -4 14 -10 20 -15 15 34 12 53 -4 12 -10 17 -10 23
-1 4 7 3 9 -3 6 -6 -4 -13 -1 -16 7 -6 14 16 16 29 3 4 -4 14 -7 23 -6 12 0
11 3 -4 9 -11 5 -15 9 -9 9 7 1 14 8 17 15 4 10 1 13 -10 9 -8 -3 -19 0 -24 8
-6 10 -9 11 -9 1 0 -9 -15 -12 -50 -10 -35 2 -49 7 -45 16 2 6 0 12 -5 12 -6
0 -10 -4 -10 -10 0 -5 -5 -10 -11 -10 -5 0 -7 5 -4 10 3 6 1 10 -4 10 -6 0
-11 -4 -11 -10 0 -5 -5 -10 -11 -10 -5 0 -8 4 -5 8 2 4 0 14 -6 22 -8 12 -9
12 -4 -2 3 -10 1 -20 -4 -23 -6 -4 -10 -1 -10 4 0 6 -5 11 -11 11 -5 0 -7 -4
-4 -10 3 -5 2 -10 -4 -10 -5 0 -12 6 -14 13 -4 10 -6 10 -6 0 -1 -15 -31 -18
-31 -4 0 19 -35 22 -47 5 -9 -13 -13 -14 -13 -4 0 11 -3 11 -12 2 -15 -15 -28
-15 -28 -1 0 5 4 8 8 5 5 -3 9 1 9 9 0 20 -3 19 -21 -7z m88 -6 c3 -5 -1 -9
-9 -9 -8 0 -15 4 -15 9 0 4 4 8 9 8 6 0 12 -4 15 -8z m-2443 -1805 c-1 -12
-15 -9 -19 4 -3 6 1 10 8 8 6 -3 11 -8 11 -12z"/>
<path d="M4796 3937 c3 -10 9 -15 12 -12 3 3 0 11 -7 18 -10 9 -11 8 -5 -6z"/>
<path d="M3030 3925 c-9 -11 -6 -16 12 -25 21 -10 21 -10 6 3 -22 18 -12 30
14 16 11 -6 22 -9 24 -6 2 2 -7 9 -20 15 -19 8 -27 8 -36 -3z"/>
<path d="M4569 3923 c-13 -16 -12 -17 4 -4 16 13 21 21 13 21 -2 0 -10 -8 -17
-17z"/>
<path d="M4376 3917 c3 -10 9 -15 12 -12 3 3 0 11 -7 18 -10 9 -11 8 -5 -6z"/>
<path d="M4510 3920 c0 -5 5 -10 10 -10 6 0 10 5 10 10 0 6 -4 10 -10 10 -5 0
-10 -4 -10 -10z"/>
<path d="M4986 3921 c8 -9 44 -11 44 -3 0 4 -11 8 -25 8 -13 0 -22 -2 -19 -5z"/>
<path d="M4336 3907 c3 -10 9 -15 12 -12 3 3 0 11 -7 18 -10 9 -11 8 -5 -6z"/>
<path d="M4058 3883 c2 -12 6 -23 7 -23 1 0 5 11 7 23 3 14 0 24 -7 24 -7 0
-10 -10 -7 -24z"/>
<path d="M4000 3891 c-8 -6 -18 -7 -22 -5 -4 3 -8 1 -8 -5 0 -14 39 -9 44 6 6
15 5 16 -14 4z"/>
<path d="M4227 3889 c7 -7 15 -10 18 -7 3 3 -2 9 -12 12 -14 6 -15 5 -6 -5z"/>
<path d="M4164 3883 c4 -4 16 -8 28 -10 12 -2 19 -1 16 2 -3 3 -16 8 -28 10
-12 2 -20 1 -16 -2z"/>
<path d="M2977 3873 c-4 -3 -7 -11 -7 -17 0 -6 5 -5 12 2 6 6 9 14 7 17 -3 3
-9 2 -12 -2z"/>
<path d="M3923 3873 c-15 -5 -17 -23 -4 -23 5 0 11 7 15 15 3 8 4 15 3 14 -1
0 -8 -3 -14 -6z"/>
<path d="M4015 3862 c-2 -3 -2 -8 1 -13 5 -9 34 -1 34 10 0 8 -27 10 -35 3z"/>
<path d="M2997 3853 c-10 -9 -9 -23 1 -23 5 0 9 7 9 15 0 17 -1 18 -10 8z"/>
<path d="M3826 3851 c-3 -5 2 -15 12 -22 15 -12 16 -12 5 2 -7 9 -10 19 -6 22
3 4 4 7 0 7 -3 0 -8 -4 -11 -9z"/>
<path d="M3936 3833 c-6 -14 -5 -15 5 -6 7 7 10 15 7 18 -3 3 -9 -2 -12 -12z"/>
<path d="M4886 3832 c-2 -4 4 -8 14 -8 10 0 16 4 14 8 -3 4 -9 8 -14 8 -5 0
-11 -4 -14 -8z"/>
<path d="M3743 3816 c0 -7 6 -13 14 -13 7 0 13 4 13 8 0 4 -6 9 -13 12 -8 3
-14 0 -14 -7z"/>
<path d="M4826 3815 c-11 -8 -17 -17 -14 -20 2 -3 13 4 23 15 21 23 18 25 -9
5z"/>
<path d="M4856 3813 c-6 -14 -5 -15 5 -6 7 7 10 15 7 18 -3 3 -9 -2 -12 -12z"/>
<path d="M3684 3808 c-3 -5 -10 -6 -15 -3 -5 3 -6 -1 -2 -10 4 -13 8 -14 14
-4 7 12 39 22 39 12 0 -2 -5 -14 -11 -26 -10 -21 -10 -21 5 -3 9 11 16 25 16
32 0 14 -38 15 -46 2z"/>
<path d="M2910 3800 c-13 -8 -12 -10 3 -10 9 0 17 5 17 10 0 12 -1 12 -20 0z"/>
<path d="M3810 3799 c0 -5 5 -7 10 -4 6 3 10 8 10 11 0 2 -4 4 -10 4 -5 0 -10
-5 -10 -11z"/>
<path d="M4776 3803 c-4 -5 -13 -8 -18 -8 -6 0 -13 -7 -15 -15 -4 -13 -3 -13
6 0 6 8 11 11 11 6 0 -5 6 -3 13 3 8 6 18 7 22 3 5 -4 5 -1 1 6 -8 14 -10 15
-20 5z"/>
<path d="M4715 3780 c3 -5 8 -10 11 -10 2 0 4 5 4 10 0 6 -5 10 -11 10 -5 0
-7 -4 -4 -10z"/>
<path d="M2890 3769 c0 -5 -4 -8 -9 -5 -9 6 -61 -52 -61 -68 0 -5 11 5 25 24
14 19 25 29 25 22 0 -7 5 -12 12 -12 6 0 8 3 5 7 -4 3 0 15 10 25 9 11 11 18
5 18 -7 0 -12 -5 -12 -11z"/>
<path d="M2935 3769 c-4 -6 -5 -12 -2 -15 2 -3 7 2 10 11 7 17 1 20 -8 4z"/>
<path d="M3570 3756 c14 -18 13 -19 -5 -12 -16 6 -18 5 -7 -5 8 -9 15 -10 22
-3 8 8 5 15 -7 25 -17 13 -17 13 -3 -5z"/>
<path d="M4640 3755 c-7 -9 -10 -18 -6 -22 3 -3 6 -1 6 6 0 7 7 11 14 8 10 -4
13 -1 9 9 -6 18 -8 18 -23 -1z"/>
<path d="M3599 3733 c-12 -16 -12 -17 2 -6 9 7 20 9 24 5 5 -4 5 -1 1 6 -9 16
-11 15 -27 -5z"/>
<path d="M4596 3741 c-4 -5 -2 -12 3 -15 5 -4 12 -2 15 3 4 5 2 12 -3 15 -5 4
-12 2 -15 -3z"/>
<path d="M3543 3715 c0 -7 6 -11 14 -8 7 3 13 6 13 8 0 2 -6 5 -13 8 -8 3 -14
-1 -14 -8z"/>
<path d="M3399 3693 c-12 -16 -12 -17 2 -6 9 7 20 9 24 5 5 -4 5 -1 1 6 -9 16
-11 15 -27 -5z"/>
<path d="M3510 3699 c0 -5 5 -7 10 -4 6 3 10 8 10 11 0 2 -4 4 -10 4 -5 0 -10
-5 -10 -11z"/>
<path d="M4487 3695 c-15 -11 -16 -13 -2 -18 8 -4 14 -1 12 6 -1 7 6 11 16 9
20 -3 23 4 4 11 -7 3 -21 -1 -30 -8z"/>
<path d="M4450 3659 c0 -5 5 -7 10 -4 6 3 10 8 10 11 0 2 -4 4 -10 4 -5 0 -10
-5 -10 -11z"/>
<path d="M3345 3639 c-4 -6 -5 -12 -2 -15 2 -3 7 2 10 11 7 17 1 20 -8 4z"/>
<path d="M3266 3632 c-2 -4 4 -8 14 -8 10 0 16 4 14 8 -3 4 -9 8 -14 8 -5 0
-11 -4 -14 -8z"/>
<path d="M4339 3623 c-8 -9 -9 -14 -2 -10 6 4 13 4 16 0 2 -5 2 -2 0 6 -2 9 3
12 17 8 11 -3 18 -1 14 4 -8 14 -30 11 -45 -8z"/>
<path d="M3313 3615 c0 -8 4 -12 9 -9 4 3 8 9 8 15 0 5 -4 9 -8 9 -5 0 -9 -7
-9 -15z"/>
<path d="M3250 3598 c0 -4 4 -8 9 -8 6 0 12 4 15 8 3 5 -1 9 -9 9 -8 0 -15 -4
-15 -9z"/>
<path d="M3146 3567 c3 -10 9 -15 12 -12 3 3 0 11 -7 18 -10 9 -11 8 -5 -6z"/>
<path d="M3193 3573 c4 -3 -1 -11 -10 -18 -13 -9 -13 -14 -3 -20 8 -5 11 -4 7
2 -4 6 0 13 8 17 18 6 20 26 3 26 -6 0 -8 -3 -5 -7z"/>
<path d="M2705 3560 c-3 -6 1 -7 9 -4 18 7 21 14 7 14 -6 0 -13 -4 -16 -10z"/>
<path d="M4190 3541 c0 -6 4 -13 10 -16 6 -3 7 1 4 9 -7 18 -14 21 -14 7z"/>
<path d="M3036 3511 c-3 -5 1 -11 9 -14 9 -4 12 -1 8 9 -6 16 -10 17 -17 5z"/>
<path d="M3070 3479 c0 -5 5 -7 10 -4 6 3 10 8 10 11 0 2 -4 4 -10 4 -5 0 -10
-5 -10 -11z"/>
<path d="M4072 3467 c-25 -26 -28 -37 -10 -37 6 0 8 3 5 7 -8 8 13 34 22 28 4
-2 8 2 8 10 0 19 0 19 -25 -8z"/>
<path d="M2960 3455 c-12 -13 -26 -22 -31 -20 -4 3 -10 1 -13 -4 -5 -8 15 -8
34 -1 3 1 9 2 13 1 5 -1 6 3 3 8 -9 14 19 32 40 25 16 -5 16 -4 4 5 -21 15
-24 14 -50 -14z"/>
<path d="M4124 3459 c-4 -8 -3 -9 4 -5 7 4 12 1 12 -9 0 -9 -4 -13 -10 -10 -5
3 -10 1 -10 -5 0 -6 -5 -8 -10 -5 -6 4 -8 11 -5 16 4 5 1 9 -5 9 -7 0 -9 -8
-5 -21 5 -15 2 -22 -14 -26 -12 -3 -21 -10 -21 -17 0 -6 -8 -2 -17 9 -14 18
-15 18 -9 2 8 -24 -1 -38 -19 -31 -8 4 -12 11 -8 17 3 5 1 7 -5 4 -5 -4 -8
-17 -4 -29 3 -14 2 -19 -6 -14 -7 4 -12 2 -12 -3 0 -6 -4 -11 -9 -11 -6 0 -8
9 -6 20 3 17 1 19 -16 10 -22 -12 -26 -22 -5 -14 23 9 12 -26 -14 -46 -19 -14
-29 -16 -45 -8 -16 8 -18 8 -8 -2 14 -15 -1 -32 -59 -70 -21 -14 -38 -29 -38
-33 0 -5 -4 -5 -10 -2 -5 3 -10 1 -10 -4 0 -6 -7 -11 -16 -11 -9 0 -12 -5 -8
-12 5 -9 2 -8 -9 1 -15 12 -17 12 -12 -2 4 -10 -7 -25 -32 -43 -21 -16 -44
-35 -52 -42 -7 -7 -20 -11 -28 -8 -8 4 -11 1 -7 -5 9 -15 -34 -52 -52 -45 -8
3 -12 2 -9 -4 5 -8 -15 -31 -78 -88 -11 -9 -23 -16 -29 -14 -5 1 -7 -2 -4 -7
7 -11 -40 -51 -60 -51 -8 0 -13 -4 -11 -8 1 -4 -21 -32 -50 -62 -43 -44 -54
-51 -67 -41 -11 9 -16 9 -22 0 -4 -7 -3 -9 4 -5 6 3 14 1 17 -4 4 -6 -11 -30
-34 -53 -22 -23 -57 -61 -77 -84 -21 -23 -42 -39 -47 -36 -6 3 -7 1 -3 -5 3
-6 -6 -20 -20 -31 -15 -12 -23 -21 -19 -21 5 0 -2 -11 -15 -25 -13 -14 -30
-23 -38 -20 -7 2 -10 0 -7 -5 8 -12 -35 -71 -47 -64 -5 3 -7 0 -6 -8 2 -7 -3
-12 -10 -10 -8 1 -11 -2 -8 -7 7 -10 -40 -66 -54 -66 -5 0 -15 -7 -22 -15 -11
-12 -11 -12 5 -1 9 7 17 9 17 3 0 -15 -26 -33 -35 -24 -5 4 -5 2 -2 -4 8 -15
-22 -56 -35 -48 -6 4 -8 2 -5 -3 4 -6 -4 -22 -18 -37 -13 -14 -22 -26 -19 -26
7 0 -49 -74 -58 -78 -5 -2 -8 -10 -8 -18 0 -8 -5 -14 -10 -14 -6 0 -9 -3 -8
-7 1 -5 -10 -27 -25 -50 -15 -24 -39 -67 -54 -97 -15 -30 -31 -52 -36 -49 -6
3 -7 1 -3 -5 3 -6 -3 -46 -14 -89 -11 -43 -22 -97 -25 -120 -4 -39 -3 -43 18
-43 17 0 19 2 8 9 -12 8 -11 14 5 38 10 15 25 39 31 53 l13 25 -6 -25 c-4 -22
-4 -23 6 -7 7 10 9 24 7 32 -3 7 3 21 14 31 10 9 19 24 19 32 0 8 6 12 15 8 8
-3 14 0 12 6 -1 6 4 13 12 16 9 3 11 0 6 -8 -5 -9 -4 -11 4 -6 6 4 9 11 6 16
-3 5 3 13 12 19 24 14 7 14 -20 0 -19 -9 -18 -7 4 14 15 14 29 32 31 39 4 10
9 10 24 -2 15 -11 16 -11 7 0 -18 19 -16 35 1 21 11 -9 16 -9 22 0 4 7 3 9 -4
5 -5 -3 -12 -1 -14 6 -5 15 37 63 55 63 6 0 12 5 12 12 0 7 6 18 14 25 10 10
12 10 7 1 -4 -7 -2 -13 3 -13 10 0 15 14 12 33 0 4 5 7 13 7 8 0 18 5 22 12 5
7 3 8 -6 3 -9 -5 -11 -4 -6 3 4 7 14 12 22 12 8 0 13 4 9 9 -3 5 0 13 6 17 8
4 9 3 5 -4 -4 -7 -2 -12 3 -12 6 0 11 8 11 19 0 25 25 47 36 30 5 -9 11 -7 20
5 8 11 18 15 26 11 11 -7 11 -6 0 6 -11 12 -16 11 -29 -6 -9 -12 -13 -14 -11
-5 3 8 14 20 26 26 12 6 19 13 16 16 -3 4 14 19 38 36 24 16 52 39 62 51 11
11 25 21 32 21 7 0 15 6 18 13 3 6 4 1 1 -13 -3 -14 -2 -19 1 -12 3 6 12 12
20 12 8 0 14 5 14 11 0 5 -4 7 -10 4 -5 -3 -7 0 -4 9 5 13 27 28 45 30 4 1 17
12 29 26 12 14 19 20 16 14 -12 -24 23 -21 45 3 13 15 18 23 10 18 -9 -5 -12
-3 -9 5 7 21 28 24 29 3 0 -16 1 -16 8 2 5 11 6 25 3 30 -3 6 -1 7 3 2 5 -4
18 2 30 13 12 11 33 23 46 25 13 3 25 9 27 15 2 6 8 8 13 4 5 -3 9 3 9 12 0
10 3 14 8 10 4 -4 7 -13 7 -19 0 -5 7 -12 15 -14 9 -3 11 -1 5 4 -13 10 -19
47 -7 39 5 -3 17 3 27 14 10 11 21 17 26 15 4 -3 15 3 25 12 16 16 17 16 11 1
-4 -12 -2 -15 8 -12 8 3 11 13 8 21 -5 13 -3 14 17 3 18 -10 21 -9 15 1 -6 9
-3 10 11 5 10 -4 15 -4 12 0 -10 9 11 46 22 39 4 -3 11 1 14 7 3 7 4 5 3 -6
-1 -11 5 -20 15 -21 10 -2 16 2 15 8 -1 6 4 11 11 12 6 0 11 5 10 10 -2 5 -6
9 -10 8 -5 -2 -8 2 -8 7 0 6 6 10 13 9 26 -3 38 1 31 13 -4 7 -3 8 4 4 7 -4
12 -2 12 5 0 7 3 9 7 6 3 -4 -2 -16 -12 -27 -10 -11 -14 -20 -8 -20 5 0 16 11
23 25 7 14 24 32 38 41 13 9 21 11 18 5 -9 -14 4 -14 24 -1 12 8 12 10 1 10
-17 0 -9 11 11 14 7 1 19 5 26 9 6 5 12 5 12 1 0 -4 9 1 21 12 12 10 24 18 28
18 3 -1 12 1 20 4 7 3 17 -1 22 -9 6 -11 9 -8 9 9 0 12 5 22 11 22 5 0 7 -4 4
-10 -3 -6 1 -7 9 -4 9 3 13 11 9 17 -3 5 -1 7 4 4 6 -4 17 0 24 9 12 14 14 14
27 -3 14 -17 14 -17 10 2 -4 16 0 21 15 22 11 1 24 8 29 15 6 9 7 5 4 -12 -3
-14 -3 -19 0 -12 3 6 9 10 14 7 4 -3 7 3 6 12 0 10 4 18 11 18 6 0 15 3 19 8
4 4 12 7 18 7 5 0 1 -6 -9 -14 -11 -8 -24 -12 -29 -9 -5 4 -6 1 -2 -6 9 -13
26 -3 59 34 13 14 17 15 14 4 -4 -11 2 -15 23 -15 16 0 27 3 24 7 -2 5 -12 5
-21 2 -11 -4 -14 -2 -11 8 3 8 11 13 18 11 7 -2 20 4 30 13 14 12 20 13 26 4
4 -7 3 -10 -2 -6 -5 3 -9 -5 -9 -18 0 -12 5 -21 11 -18 6 2 10 15 8 28 -1 14
2 27 7 31 5 3 9 0 9 -5 0 -6 7 -11 15 -11 8 0 15 5 15 11 0 5 -5 7 -12 3 -7
-5 -8 -3 -4 5 5 7 11 10 14 7 3 -3 11 -1 19 5 7 6 13 8 13 4 0 -4 6 -2 14 4
11 10 22 9 48 -4 23 -11 28 -12 16 -2 -21 17 -24 31 -4 24 11 -4 13 2 9 25 -4
27 -2 29 19 23 19 -5 20 -4 6 5 -14 8 -17 26 -16 94 0 45 -3 94 -6 107 -15 54
-42 105 -64 123 -13 10 -21 25 -18 33 4 8 1 11 -5 7 -6 -4 -15 0 -20 7 -12 20
-11 31 3 23 7 -4 8 -3 4 5 -10 15 -29 3 -22 -15 3 -8 0 -11 -10 -7 -8 3 -13
11 -11 18 3 6 -1 12 -9 12 -7 0 -11 -5 -7 -10 3 -5 -4 -4 -16 2 -12 7 -26 9
-31 6 -5 -3 -12 0 -16 6 -5 8 -3 9 6 4 9 -5 11 -4 6 4 -6 9 -11 9 -24 -1 -14
-11 -15 -10 -9 7 7 20 7 20 -8 1 -8 -11 -15 -15 -15 -9 0 6 -7 14 -16 17 -13
5 -14 3 -6 -6 8 -10 4 -13 -14 -14 -13 -1 -24 2 -24 8 0 5 4 7 8 4 5 -3 9 2 9
11 0 13 -4 12 -18 -5 -20 -25 -34 -29 -25 -7 3 8 1 15 -4 15 -6 0 -10 -7 -10
-15 0 -8 -4 -15 -10 -15 -5 0 -10 6 -10 14 0 20 -17 29 -26 15z m-400 -828 c3
-5 -1 -14 -8 -20 -12 -10 -13 -8 -9 8 6 23 9 25 17 12z m-435 -267 c-6 -8 -15
-12 -18 -8 -3 4 0 9 7 11 6 3 9 10 6 15 -4 7 -2 8 5 4 9 -6 9 -11 0 -22z"/>
<path d="M4350 3439 c0 -5 5 -7 10 -4 6 3 10 8 10 11 0 2 -4 4 -10 4 -5 0 -10
-5 -10 -11z"/>
<path d="M3974 3406 c-3 -9 -9 -14 -13 -12 -3 2 -19 -6 -35 -19 -20 -16 -25
-25 -16 -30 8 -5 11 -4 6 3 -3 6 3 13 14 17 11 3 20 11 20 16 0 6 4 8 9 5 4
-3 16 1 26 8 13 9 15 15 6 20 -6 4 -14 0 -17 -8z"/>
<path d="M2928 3398 c10 -13 10 -17 0 -21 -9 -4 -9 -6 -1 -6 20 -2 24 16 5 30
-15 13 -16 12 -4 -3z"/>
<path d="M4476 3367 c3 -10 9 -15 12 -12 3 3 0 11 -7 18 -10 9 -11 8 -5 -6z"/>
<path d="M2832 3339 c0 -16 3 -31 9 -34 5 -3 6 1 2 10 -3 10 -1 20 4 24 7 4 7
10 -2 17 -9 9 -12 6 -13 -17z"/>
<path d="M2884 3362 c4 -3 14 -7 22 -8 9 -1 13 0 10 4 -4 3 -14 7 -22 8 -9 1
-13 0 -10 -4z"/>
<path d="M3846 3314 c-4 -11 -1 -12 13 -5 10 6 20 9 22 8 2 -1 3 0 1 2 -7 11
-31 8 -36 -5z"/>
<path d="M3904 3318 c-4 -5 -3 -12 0 -15 3 -4 6 -1 6 6 0 7 4 10 9 6 5 -3 12
-2 15 3 3 5 -2 9 -10 9 -8 0 -17 -4 -20 -9z"/>
<path d="M2743 3280 c-36 -42 -39 -50 -21 -50 6 0 9 3 5 6 -7 7 34 55 42 49 4
-2 7 5 7 16 0 10 0 19 -1 19 0 0 -15 -18 -32 -40z"/>
<path d="M3836 3282 c-3 -5 1 -9 9 -9 8 0 12 4 9 9 -3 4 -7 8 -9 8 -2 0 -6 -4
-9 -8z"/>
<path d="M2790 3259 c0 -5 5 -7 10 -4 6 3 10 8 10 11 0 2 -4 4 -10 4 -5 0 -10
-5 -10 -11z"/>
<path d="M3746 3240 c5 -8 9 -18 9 -22 0 -3 3 -9 7 -13 3 -4 5 0 4 9 -1 9 -8
22 -16 29 -10 10 -11 9 -4 -3z"/>
<path d="M3725 3209 c-4 -6 -13 -8 -20 -5 -8 3 -19 -3 -26 -12 -11 -14 -11
-15 1 -5 10 9 19 9 34 1 12 -6 18 -7 14 -3 -4 5 -3 14 3 22 6 7 9 13 6 13 -3
0 -9 -5 -12 -11z"/>
<path d="M3630 3155 c-10 -13 -11 -18 -1 -28 10 -9 11 -8 5 7 -5 12 -4 17 3
13 5 -3 10 0 10 8 0 19 -2 19 -17 0z"/>
<path d="M2635 3141 c-3 -5 -2 -12 3 -15 5 -3 9 1 9 9 0 17 -3 19 -12 6z"/>
<path d="M3655 3131 c-3 -5 -2 -12 3 -15 5 -3 9 1 9 9 0 17 -3 19 -12 6z"/>
<path d="M2556 3088 c-9 -12 -16 -27 -16 -33 0 -5 8 2 18 18 10 15 22 24 27
20 4 -5 5 -2 1 5 -10 16 -12 16 -30 -10z"/>
<path d="M3556 3085 c-3 -8 -1 -15 4 -15 6 0 10 7 10 15 0 8 -2 15 -4 15 -2 0
-6 -7 -10 -15z"/>
<path d="M3610 3079 c0 -5 5 -7 10 -4 6 3 10 8 10 11 0 2 -4 4 -10 4 -5 0 -10
-5 -10 -11z"/>
<path d="M3515 3056 c-10 -7 -15 -19 -12 -27 4 -10 6 -9 6 4 1 19 17 23 23 5
3 -8 7 -6 11 5 8 22 -6 29 -28 13z"/>
<path d="M4595 3059 c-6 -8 -4 -10 5 -4 24 15 5 -103 -21 -131 -12 -13 -26
-21 -31 -18 -5 3 -20 -1 -33 -10 -13 -9 -32 -13 -41 -9 -13 5 -15 3 -9 -7 6
-10 4 -12 -8 -7 -9 3 -20 1 -23 -5 -5 -8 -10 -5 -15 8 -7 17 -8 16 -8 -6 -1
-20 -3 -22 -11 -10 -8 13 -10 13 -10 -2 0 -11 -5 -15 -15 -12 -9 4 -15 0 -15
-7 0 -10 -3 -10 -8 -3 -8 13 -44 15 -36 2 3 -5 10 -5 16 -2 7 4 8 2 4 -4 -4
-6 -14 -8 -23 -5 -12 5 -14 3 -8 -7 5 -8 4 -11 -3 -6 -6 3 -13 2 -17 -4 -4 -6
-10 -8 -15 -5 -5 3 -11 1 -15 -5 -4 -6 -11 -8 -16 -5 -5 4 -9 0 -10 -7 0 -7
-4 -4 -9 7 -8 19 -9 19 -9 -3 -1 -14 -5 -20 -12 -17 -6 4 -8 14 -5 22 4 8 1
11 -5 8 -6 -4 -8 -13 -5 -21 6 -16 -29 -38 -49 -30 -7 2 -16 -2 -19 -10 -3 -8
-11 -14 -18 -14 -9 0 -8 3 2 10 8 5 11 10 6 10 -6 0 -20 -10 -33 -22 -13 -12
-23 -16 -23 -10 0 6 5 14 10 17 6 4 8 10 5 15 -3 5 2 11 10 13 11 4 10 4 -2 3
-10 -1 -18 -7 -18 -13 0 -18 -43 -45 -58 -37 -9 6 -9 4 1 -8 10 -13 10 -17 -2
-21 -9 -4 -18 -1 -22 5 -5 7 -2 8 6 3 9 -5 11 -4 6 4 -10 16 -26 4 -19 -14 5
-13 -7 -20 -29 -16 -5 0 -8 -3 -8 -8 0 -5 -7 -12 -16 -15 -14 -5 -15 -4 -4 9
11 13 10 14 -4 9 -9 -3 -16 -9 -16 -13 0 -11 -50 -32 -60 -26 -5 3 -12 0 -16
-6 -5 -8 -3 -9 6 -4 9 5 11 4 6 -4 -4 -6 -11 -9 -16 -6 -5 3 -12 0 -15 -6 -4
-5 -14 -8 -22 -5 -8 3 -12 2 -9 -2 3 -4 -4 -14 -16 -21 -15 -9 -18 -9 -13 0 7
10 -53 -27 -65 -42 -13 -15 -138 -75 -152 -73 -10 1 -15 -3 -12 -11 3 -7 -2
-15 -10 -18 -11 -4 -13 -1 -10 11 3 9 -2 4 -12 -12 -16 -29 -17 -29 -32 -10
-14 18 -14 18 -8 0 7 -21 -18 -45 -47 -46 -12 0 -16 -4 -11 -12 4 -7 4 -10 -1
-6 -4 4 -14 0 -22 -10 -8 -9 -12 -11 -8 -4 4 7 1 11 -7 10 -7 -2 -12 3 -10 10
1 8 -2 11 -8 7 -6 -3 -8 -10 -5 -15 3 -4 2 -10 -2 -13 -5 -2 -2 -2 5 0 8 1 12
-2 10 -8 -2 -6 -7 -10 -12 -9 -5 1 -13 -5 -18 -14 -5 -9 -16 -16 -25 -16 -8 0
-24 -11 -35 -25 -19 -25 -36 -28 -51 -10 -5 6 -6 -1 -2 -15 6 -25 6 -25 -11
-5 -16 20 -16 20 -10 -1 5 -17 -5 -30 -54 -68 -61 -48 -72 -60 -45 -50 11 4
13 2 9 -9 -3 -8 -1 -18 4 -21 5 -3 9 2 8 11 -1 16 46 17 717 18 396 0 721 -3
723 -7 2 -3 -4 -5 -13 -3 -23 3 -35 -4 -27 -16 4 -6 11 -6 20 2 8 6 14 8 14 4
0 -4 8 -1 17 6 15 12 16 12 10 -5 -7 -17 -5 -17 9 -5 9 8 42 15 73 16 83 3
105 7 113 18 5 6 8 6 8 -1 0 -7 7 -15 16 -18 9 -4 13 -2 8 5 -4 8 1 9 17 5 20
-6 21 -5 6 4 -9 6 -22 8 -27 5 -6 -3 -10 -4 -10 -1 0 13 57 35 67 25 6 -6 16
-2 29 12 10 13 13 19 7 15 -7 -4 -13 -2 -13 3 0 6 7 11 16 11 9 0 12 5 8 13
-5 8 -2 7 9 -2 15 -12 17 -12 11 4 -6 14 -4 16 7 10 12 -7 12 -6 1 7 -10 13
-10 18 -1 24 8 4 9 3 5 -4 -11 -18 0 -14 15 5 10 11 10 14 2 9 -9 -5 -13 -1
-13 11 0 17 -74 225 -107 300 -28 65 -43 115 -36 126 3 5 2 8 -3 4 -8 -4 -82
174 -132 318 -16 48 -27 61 -37 44z m-555 -349 c0 -5 -5 -10 -11 -10 -5 0 -7
5 -4 10 3 6 8 10 11 10 2 0 4 -4 4 -10z m810 -544 c0 -3 -4 -8 -10 -11 -5 -3
-10 -1 -10 4 0 6 5 11 10 11 6 0 10 -2 10 -4z"/>
<path d="M2575 3049 c-4 -6 -5 -12 -2 -15 2 -3 7 2 10 11 7 17 1 20 -8 4z"/>
<path d="M2486 3001 c-12 -13 -14 -21 -6 -26 6 -4 9 -1 8 7 -2 7 2 12 8 11 6
-1 11 5 11 13 0 18 0 18 -21 -5z"/>
<path d="M3447 3004 c-3 -4 -2 -14 3 -24 5 -10 6 -20 3 -24 -3 -3 -1 -6 6 -6
9 0 11 6 6 18 -4 9 -8 23 -8 30 0 14 -1 14 -10 6z"/>
<path d="M4466 2943 c-4 -5 -13 -8 -19 -8 -7 0 -13 -10 -13 -22 -1 -13 3 -23
8 -23 5 0 7 9 3 20 -5 15 -2 18 15 15 11 -2 18 0 15 5 -3 4 1 11 7 13 7 3 8 6
2 6 -6 1 -14 -2 -18 -6z"/>
<path d="M3366 2921 c-13 -14 -14 -21 -5 -27 7 -4 10 -3 7 2 -8 12 17 35 28
26 4 -4 4 -1 0 6 -9 16 -10 15 -30 -7z"/>
<path d="M4500 2920 c8 -5 20 -10 25 -10 6 0 3 5 -5 10 -8 5 -19 10 -25 10 -5
0 -3 -5 5 -10z"/>
<path d="M4550 2919 c0 -5 5 -7 10 -4 6 3 10 8 10 11 0 2 -4 4 -10 4 -5 0 -10
-5 -10 -11z"/>
<path d="M4485 2900 c3 -5 8 -10 11 -10 2 0 4 5 4 10 0 6 -5 10 -11 10 -5 0
-7 -4 -4 -10z"/>
<path d="M3390 2879 c0 -5 5 -7 10 -4 6 3 10 8 10 11 0 2 -4 4 -10 4 -5 0 -10
-5 -10 -11z"/>
<path d="M4260 2845 c0 -7 30 -13 34 -7 3 4 -4 9 -15 9 -10 1 -19 0 -19 -2z"/>
<path d="M4230 2820 c0 -5 5 -10 10 -10 6 0 10 5 10 10 0 6 -4 10 -10 10 -5 0
-10 -4 -10 -10z"/>
<path d="M4097 2797 c-3 -8 -2 -20 3 -26 5 -9 8 -4 8 13 0 29 -3 32 -11 13z"/>
<path d="M4152 2774 c-7 -8 -8 -14 -3 -14 10 0 25 19 20 25 -2 1 -10 -3 -17
-11z"/>
<path d="M3183 2744 c-15 -14 -23 -23 -16 -20 6 3 14 0 16 -6 4 -10 6 -10 6 0
1 6 1 15 2 20 0 4 10 12 22 19 12 7 17 12 10 13 -7 0 -25 -12 -40 -26z"/>
<path d="M3246 2758 c3 -5 10 -6 15 -3 13 9 11 12 -6 12 -8 0 -12 -4 -9 -9z"/>
<path d="M3972 2745 c-22 -12 -27 -24 -15 -35 4 -3 3 1 -1 8 -7 12 3 15 46 15
10 0 14 5 11 13 -6 16 -10 16 -41 -1z"/>
<path d="M3915 2720 c-4 -6 -11 -8 -16 -5 -5 4 -6 -2 -2 -11 4 -10 8 -13 10
-7 3 7 10 11 16 9 7 -1 9 -1 4 1 -4 3 -5 9 -1 14 3 5 3 9 0 9 -3 0 -8 -5 -11
-10z"/>
<path d="M3161 2680 c-13 -11 -18 -20 -13 -20 6 0 14 5 17 10 4 6 10 8 14 6 4
-3 8 1 8 9 0 8 -1 15 -1 15 -1 -1 -12 -10 -25 -20z"/>
<path d="M3829 2673 c-13 -16 -12 -17 4 -4 16 13 21 21 13 21 -2 0 -10 -8 -17
-17z"/>
<path d="M3876 2675 c-9 -26 -7 -32 5 -12 6 10 9 21 6 23 -2 3 -7 -2 -11 -11z"/>
<path d="M3838 2643 c7 -3 16 -2 19 1 4 3 -2 6 -13 5 -11 0 -14 -3 -6 -6z"/>
<path d="M3104 2622 c4 -3 14 -7 22 -8 9 -1 13 0 10 4 -4 3 -14 7 -22 8 -9 1
-13 0 -10 -4z"/>
<path d="M3674 2581 c0 -16 4 -27 8 -25 4 2 5 14 3 26 -7 32 -13 32 -11 -1z"/>
<path d="M3035 2590 c-3 -6 1 -7 9 -4 18 7 21 14 7 14 -6 0 -13 -4 -16 -10z"/>
<path d="M3030 2536 c7 -7 13 -7 20 0 6 6 3 10 -10 10 -13 0 -16 -4 -10 -10z"/>
<path d="M3616 2542 c-12 -19 9 -30 29 -15 19 15 19 15 -4 8 -16 -5 -21 -4
-17 4 4 6 5 11 2 11 -3 0 -7 -4 -10 -8z"/>
<path d="M3534 2528 c-11 -17 6 -22 22 -7 13 14 13 16 -1 16 -9 0 -18 -4 -21
-9z"/>
<path d="M3510 2500 c0 -5 5 -10 11 -10 5 0 7 5 4 10 -3 6 -8 10 -11 10 -2 0
-4 -4 -4 -10z"/>
<path d="M3577 2496 c4 -6 -1 -6 -13 -2 -14 5 -16 4 -7 -5 9 -9 17 -8 34 4 21
16 21 16 1 14 -11 0 -18 -5 -15 -11z"/>
<path d="M3455 2460 c3 -5 8 -10 11 -10 2 0 4 5 4 10 0 6 -5 10 -11 10 -5 0
-7 -4 -4 -10z"/>
<path d="M3378 2431 c-18 -16 -31 -31 -28 -33 3 -2 20 12 38 30 42 40 34 42
-10 3z"/>
<path d="M2925 2439 c-4 -6 -14 -8 -24 -4 -13 5 -14 4 -3 -6 10 -11 15 -10 29
4 10 9 14 17 11 17 -4 0 -10 -5 -13 -11z"/>
<path d="M3430 2446 c0 -2 7 -7 16 -10 8 -3 12 -2 9 4 -6 10 -25 14 -25 6z"/>
<path d="M3394 2408 c3 -15 26 -23 26 -8 0 6 -4 9 -9 6 -5 -4 -12 -1 -14 4 -3
6 -4 5 -3 -2z"/>
<path d="M2820 2355 c-10 -12 -10 -18 -2 -26 7 -5 10 -6 7 -3 -2 4 0 15 6 25
12 23 6 25 -11 4z"/>
<path d="M3226 2321 c-3 -5 1 -11 9 -14 9 -4 12 -1 8 9 -6 16 -10 17 -17 5z"/>
<path d="M3273 2315 c0 -8 4 -12 9 -9 4 3 8 9 8 15 0 5 -4 9 -8 9 -5 0 -9 -7
-9 -15z"/>
<path d="M3190 2300 c0 -5 6 -9 13 -7 6 1 11 -6 11 -15 -1 -10 4 -14 13 -11
11 5 11 9 -3 24 -19 21 -34 25 -34 9z"/>
<path d="M2766 2292 c-3 -5 1 -9 9 -9 8 0 12 4 9 9 -3 4 -7 8 -9 8 -2 0 -6 -4
-9 -8z"/>
<path d="M2770 2259 c0 -5 5 -7 10 -4 6 3 10 8 10 11 0 2 -4 4 -10 4 -5 0 -10
-5 -10 -11z"/>
<path d="M3087 2232 c-15 -15 -27 -32 -27 -37 0 -5 12 6 26 23 21 25 30 30 41
21 11 -9 12 -8 7 5 -9 22 -16 20 -47 -12z"/>
<path d="M2723 2235 c-7 -8 -9 -16 -5 -19 4 -3 13 4 20 15 14 22 3 25 -15 4z"/>
<path d="M2146 2198 c3 -4 9 -8 15 -8 5 0 9 4 9 8 0 5 -7 9 -15 9 -8 0 -12 -4
-9 -9z"/>
<path d="M3107 2193 c3 -7 9 -10 14 -7 14 8 11 21 -5 21 -8 0 -12 -6 -9 -14z"/>
<path d="M3022 2182 c-21 -17 -22 -18 -3 -18 11 0 17 5 14 10 -4 5 1 7 10 3
11 -4 14 -2 10 9 -6 17 -3 17 -31 -4z"/>
<path d="M2239 2148 c7 -9 9 -23 5 -30 -6 -10 -4 -11 7 0 11 10 10 15 -6 30
-17 15 -18 15 -6 0z"/>
<path d="M4800 2140 c-13 -8 -12 -10 3 -10 9 0 17 5 17 10 0 12 -1 12 -20 0z"/>
<path d="M2496 2098 c3 -5 10 -6 15 -3 13 9 11 12 -6 12 -8 0 -12 -4 -9 -9z"/>
<path d="M2926 2094 c-4 -9 -4 -19 -1 -22 3 -3 5 0 5 7 0 7 4 9 10 6 6 -3 7 1
4 9 -8 20 -10 20 -18 0z"/>
<path d="M3130 2098 c0 -3 9 -6 20 -5 11 1 20 5 20 9 0 3 -9 6 -20 5 -11 -1
-20 -5 -20 -9z"/>
<path d="M3250 2098 c0 -3 9 -6 20 -5 11 1 20 5 20 9 0 3 -9 6 -20 5 -11 -1
-20 -5 -20 -9z"/>
<path d="M3370 2098 c0 -3 9 -6 20 -5 11 1 20 5 20 9 0 3 -9 6 -20 5 -11 -1
-20 -5 -20 -9z"/>
<path d="M3490 2098 c0 -3 9 -6 20 -5 11 1 20 5 20 9 0 3 -9 6 -20 5 -11 -1
-20 -5 -20 -9z"/>
<path d="M3610 2098 c0 -3 9 -6 20 -5 11 1 20 5 20 9 0 3 -9 6 -20 5 -11 -1
-20 -5 -20 -9z"/>
<path d="M3730 2098 c0 -3 9 -6 20 -5 11 1 20 5 20 9 0 3 -9 6 -20 5 -11 -1
-20 -5 -20 -9z"/>
<path d="M3850 2098 c0 -3 9 -6 20 -5 11 1 20 5 20 9 0 3 -9 6 -20 5 -11 -1
-20 -5 -20 -9z"/>
<path d="M3970 2098 c0 -3 9 -6 20 -5 11 1 20 5 20 9 0 3 -9 6 -20 5 -11 -1
-20 -5 -20 -9z"/>
<path d="M4090 2098 c0 -3 9 -6 20 -5 11 1 20 5 20 9 0 3 -9 6 -20 5 -11 -1
-20 -5 -20 -9z"/>
<path d="M4210 2098 c0 -3 9 -6 20 -5 11 1 20 5 20 9 0 3 -9 6 -20 5 -11 -1
-20 -5 -20 -9z"/>
<path d="M4330 2098 c0 -3 9 -6 20 -5 11 1 20 5 20 9 0 3 -9 6 -20 5 -11 -1
-20 -5 -20 -9z"/>
<path d="M4397 2091 c-10 -12 -9 -13 3 -6 8 5 21 10 28 11 24 4 25 13 3 11
-12 -1 -28 -8 -34 -16z"/>
<path d="M4456 2095 c-9 -26 -7 -32 5 -12 6 10 9 21 6 23 -2 3 -7 -2 -11 -11z"/>
<path d="M4703 2094 c0 -9 4 -11 10 -5 5 5 17 7 26 4 9 -4 13 -3 10 1 -13 14
-46 14 -46 0z"/>
<path d="M4590 2091 c0 -6 4 -12 8 -15 5 -3 9 1 9 9 0 8 -4 15 -9 15 -4 0 -8
-4 -8 -9z"/>
<path d="M4625 2090 c-4 -6 1 -7 11 -3 13 5 15 3 9 -7 -5 -9 -4 -11 4 -6 6 4
9 12 6 17 -8 12 -22 12 -30 -1z"/>
<path d="M4673 2085 c0 -8 4 -12 9 -9 4 3 8 9 8 15 0 5 -4 9 -8 9 -5 0 -9 -7
-9 -15z"/>
<path d="M3190 2079 c0 -5 5 -7 10 -4 6 3 10 8 10 11 0 2 -4 4 -10 4 -5 0 -10
-5 -10 -11z"/>
<path d="M2763 1938 c-22 -28 -24 -38 -9 -32 9 3 14 10 11 14 -3 5 1 10 7 13
7 2 10 7 7 11 -3 4 -11 1 -16 -6z"/>
<path d="M2690 1840 c0 -5 5 -10 10 -10 6 0 10 5 10 10 0 6 -4 10 -10 10 -5 0
-10 -4 -10 -10z"/>
<path d="M2591 1716 c-8 -10 -9 -16 -1 -21 5 -3 10 -5 11 -3 4 18 7 38 4 38
-1 0 -8 -6 -14 -14z"/>
</g>
</svg>
