<svg xmlns="http://www.w3.org/2000/svg" width="479.2" height="477" viewBox="0 0 479.2 477">
  <g id="Group_1" data-name="Group 1" transform="translate(-717 -298)">
    <path id="Subtraction_1" data-name="Subtraction 1" d="M239.5,477a242.242,242.242,0,0,1-48.267-4.845A239.5,239.5,0,0,1,18.821,331.335,236.581,236.581,0,0,1,4.866,286.566a239.84,239.84,0,0,1,0-96.132A236.665,236.665,0,0,1,40.9,105.153a239.868,239.868,0,0,1,419.276,40.513,236.583,236.583,0,0,1,13.955,44.769,239.844,239.844,0,0,1,0,96.132A236.663,236.663,0,0,1,438.1,371.847,239.483,239.483,0,0,1,239.5,477ZM245,134c-60.654,0-110,48.673-110,108.5S184.346,351,245,351s110-48.673,110-108.5S305.654,134,245,134Z" transform="translate(717 298)" fill="#29d882"/>
    <path id="Path_1" data-name="Path 1" d="M1125.68,694.227l55.241,53.934s9.876,6.489,13.4-5.5,1-222.574,1-222.574l-76.044-1Z" fill="#29d882"/>
  </g>
</svg>
