<svg xmlns="http://www.w3.org/2000/svg" width="479.2" height="477" viewBox="0 0 479.2 477">
  <path id="Union_1" data-name="Union 1" d="M191.232,472.154A239.5,239.5,0,0,1,18.821,331.335,236.683,236.683,0,0,1,4.865,286.566a239.861,239.861,0,0,1,0-96.133A236.654,236.654,0,0,1,40.9,105.152a239.87,239.87,0,0,1,419.276,40.513,236.681,236.681,0,0,1,13.955,44.769A239.323,239.323,0,0,1,479,238.5q0,6.649-.368,13.286c.546,58.482,1.387,183.709-1.308,192.875-3.526,11.99-13.4,5.5-13.4,5.5L414.214,401.63q-2.638,2.8-5.362,5.514a240.722,240.722,0,0,1-217.62,65.01ZM135,242.5C135,302.327,184.345,351,245,351s110-48.673,110-108.5S305.654,134,245,134,135,182.673,135,242.5Z" fill="#29d882"/>
</svg>
