<svg xmlns="http://www.w3.org/2000/svg" width="849.683" height="145.6" viewBox="0 0 849.683 145.6">
  <path id="Path_2" data-name="Path 2" d="M97.8-31H37L25.8,0H6.6L57-138.6H78L128.2,0H109ZM92.6-45.8,67.4-116.2,42.2-45.8ZM223.6,0,190.4-57h-22V0H150.2V-139.4h45q15.8,0,26.7,5.4t16.3,14.6a40.7,40.7,0,0,1,5.4,21A41.023,41.023,0,0,1,235.3-73Q227-62,210.4-58.4L245.4,0ZM168.4-71.6h26.8q14.8,0,22.2-7.3t7.4-19.5q0-12.4-7.3-19.2t-22.3-6.8H168.4ZM354.2-31H293.4L282.2,0H263l50.4-138.6h21L384.6,0H365.4ZM349-45.8l-25.2-70.4L298.6-45.8Zm172.8-93.6L469.2,0h-21L395.6-139.4H415L458.8-19.2l43.8-120.2Zm38.2,0V0H541.8V-139.4ZM700.6,0H682.4L609.2-111V0H591V-139.6h18.2L682.4-28.8V-139.6h18.2ZM775-139.4q22.8,0,39.5,8.5a59.74,59.74,0,0,1,25.6,24.3Q849-90.8,849-69.4t-8.9,37.1a58.7,58.7,0,0,1-25.6,24Q797.8,0,775,0H731.6V-139.4ZM775-15q27,0,41.2-14.3t14.2-40.1q0-26-14.3-40.6T775-124.6H749.8V-15Z" transform="translate(-2.317 142.6)" fill="none" stroke="#000" stroke-linecap="round" stroke-width="6"/>
</svg>
